<?xml version="1.0" encoding="UTF-8" standalone="no"?>
<!-- Created with Inkscape (http://www.inkscape.org/) -->

<svg
   xmlns:dc="http://purl.org/dc/elements/1.1/"
   xmlns:cc="http://creativecommons.org/ns#"
   xmlns:rdf="http://www.w3.org/1999/02/22-rdf-syntax-ns#"
   xmlns:svg="http://www.w3.org/2000/svg"
   xmlns="http://www.w3.org/2000/svg"
   xmlns:sodipodi="http://sodipodi.sourceforge.net/DTD/sodipodi-0.dtd"
   xmlns:inkscape="http://www.inkscape.org/namespaces/inkscape"
   width="169.33333mm"
   height="112.88889mm"
   viewBox="0 0 599.99994 399.99997"
   id="svg2"
   version="1.1"
   inkscape:version="0.91 r13725"
   sodipodi:docname="Amiga Virtual - Windows.svg"
   inkscape:export-filename="C:\Users\TimKruz\Documents\Visual Studio 2008\Projects\AmigaVirtual\AmigaVirtual\Resources\Main window background.png"
   inkscape:export-xdpi="90"
   inkscape:export-ydpi="90">
  <defs
     id="defs4">
    <style
       id="style4343">.cls-1,.cls-6{fill:#fbef6a;}.cls-2,.cls-5{fill:#bef574;}.cls-3{fill:none;}.cls-3,.cls-4,.cls-5,.cls-6{stroke:#000;}.cls-4{fill:#7bde5e;}</style>
    <linearGradient
       id="linearGradient21854">
      <stop
         id="stop21856"
         offset="0"
         style="stop-color:#800080;stop-opacity:1;" />
      <stop
         style="stop-color:#ff80ff;stop-opacity:1;"
         offset="0.44"
         id="stop21870" />
      <stop
         id="stop21872"
         offset="0.56999999"
         style="stop-color:#80ffff;stop-opacity:1;" />
      <stop
         id="stop21858"
         offset="1"
         style="stop-color:#008080;stop-opacity:1;" />
    </linearGradient>
    <clipPath
       id="clipPath21900"
       clipPathUnits="userSpaceOnUse">
      <rect
         style="fill:#808080;fill-opacity:1;fill-rule:nonzero;stroke:none"
         id="rect21902"
         width="815.71429"
         height="605.71429"
         x="112.85714"
         y="369.50504"
         ry="83.255554" />
    </clipPath>
  </defs>
  <sodipodi:namedview
     id="base"
     pagecolor="#ffffff"
     bordercolor="#666666"
     borderopacity="1.0"
     inkscape:pageopacity="0.0"
     inkscape:pageshadow="2"
     inkscape:zoom="1.1875"
     inkscape:cx="306.18726"
     inkscape:cy="186.3388"
     inkscape:document-units="px"
     inkscape:current-layer="layer1"
     showgrid="false"
     inkscape:window-width="1440"
     inkscape:window-height="847"
     inkscape:window-x="-8"
     inkscape:window-y="-8"
     inkscape:window-maximized="1"
     inkscape:snap-bbox="true"
     inkscape:bbox-nodes="true"
     inkscape:snap-bbox-edge-midpoints="true"
     inkscape:bbox-paths="true"
     inkscape:snap-bbox-midpoints="true"
     inkscape:snap-nodes="true"
     inkscape:object-paths="true"
     inkscape:snap-intersection-paths="true"
     inkscape:snap-smooth-nodes="true"
     inkscape:snap-midpoints="true"
     inkscape:object-nodes="true"
     inkscape:snap-global="true"
     showguides="false"
     fit-margin-top="0"
     fit-margin-left="0"
     fit-margin-right="0"
     fit-margin-bottom="0" />
  <metadata
     id="metadata7">
    <rdf:RDF>
      <cc:Work
         rdf:about="">
        <dc:format>image/svg+xml</dc:format>
        <dc:type
           rdf:resource="http://purl.org/dc/dcmitype/StillImage" />
        <dc:title />
      </cc:Work>
    </rdf:RDF>
  </metadata>
  <g
     inkscape:label="Layer 1"
     inkscape:groupmode="layer"
     id="layer1"
     transform="translate(-178.85715,-90.21936)">
    <rect
       style="opacity:1;fill:#f1ffb2;fill-opacity:1;stroke:none;stroke-width:20;stroke-linecap:butt;stroke-linejoin:bevel;stroke-miterlimit:4;stroke-dasharray:none;stroke-dashoffset:0;stroke-opacity:1"
       id="rect4136"
       width="600"
       height="400"
       x="178.85715"
       y="90.219345"
       inkscape:export-filename="C:\Users\TimKruz\Documents\Visual Studio 2008\Projects\AmigaVirtual\AmigaVirtual\Resources\rect4136.png"
       inkscape:export-xdpi="89.999992"
       inkscape:export-ydpi="89.999992" />
    <rect
       y="90.219345"
       x="179.21069"
       height="26.825237"
       width="599.64648"
       id="rect4143"
       style="opacity:1;fill:#acff4e;fill-opacity:1;stroke:none;stroke-width:20;stroke-linecap:butt;stroke-linejoin:bevel;stroke-miterlimit:4;stroke-dasharray:none;stroke-dashoffset:0;stroke-opacity:1" />
    <rect
       style="opacity:1;fill:#ff4e4e;fill-opacity:1;stroke:none;stroke-width:20;stroke-linecap:butt;stroke-linejoin:bevel;stroke-miterlimit:4;stroke-dasharray:none;stroke-dashoffset:0;stroke-opacity:1"
       id="rect4149"
       width="26.825237"
       height="26.825237"
       x="752.0321"
       y="90.219345" />
    <rect
       y="90.219345"
       x="725.20685"
       height="26.825237"
       width="26.825237"
       id="rect4151"
       style="opacity:1;fill:#4e59ff;fill-opacity:1;stroke:none;stroke-width:20;stroke-linecap:butt;stroke-linejoin:bevel;stroke-miterlimit:4;stroke-dasharray:none;stroke-dashoffset:0;stroke-opacity:1" />
    <rect
       style="opacity:1;fill:#4effd8;fill-opacity:1;stroke:none;stroke-width:20;stroke-linecap:butt;stroke-linejoin:bevel;stroke-miterlimit:4;stroke-dasharray:none;stroke-dashoffset:0;stroke-opacity:1"
       id="rect4153"
       width="26.825237"
       height="26.825237"
       x="698.38159"
       y="90.219345" />
    <rect
       y="90.219345"
       x="671.55634"
       height="26.825237"
       width="26.825237"
       id="rect4155"
       style="opacity:1;fill:#83ff4e;fill-opacity:1;stroke:none;stroke-width:20;stroke-linecap:butt;stroke-linejoin:bevel;stroke-miterlimit:4;stroke-dasharray:none;stroke-dashoffset:0;stroke-opacity:1" />
    <rect
       style="opacity:1;fill:#ffe04e;fill-opacity:1;stroke:none;stroke-width:20;stroke-linecap:butt;stroke-linejoin:bevel;stroke-miterlimit:4;stroke-dasharray:none;stroke-dashoffset:0;stroke-opacity:1"
       id="rect4157"
       width="26.825237"
       height="26.825237"
       x="644.73108"
       y="90.219345" />
    <text
       xml:space="preserve"
       style="font-style:normal;font-weight:normal;font-size:49.74341583px;line-height:125%;font-family:sans-serif;text-align:center;letter-spacing:0px;word-spacing:0px;writing-mode:lr-tb;text-anchor:middle;fill:#000000;fill-opacity:1;stroke:none;stroke-width:1px;stroke-linecap:butt;stroke-linejoin:miter;stroke-opacity:1"
       x="756.83026"
       y="118.37679"
       id="text4167"
       sodipodi:linespacing="125%"
       transform="scale(1.0113821,0.988746)"><tspan
         sodipodi:role="line"
         id="tspan4169"
         x="756.83026"
         y="118.37679">x</tspan></text>
    <g
       transform="matrix(1.4925775,0,0,1.2052864,136.58443,-164.9146)"
       style="font-style:normal;font-weight:normal;font-size:40.80657196px;line-height:125%;font-family:sans-serif;text-align:center;letter-spacing:0px;word-spacing:0px;writing-mode:lr-tb;text-anchor:middle;fill:#000000;fill-opacity:1;stroke:none;stroke-width:1px;stroke-linecap:butt;stroke-linejoin:miter;stroke-opacity:1"
       id="text4187">
      <path
         d="m 394.36635,233.93542 -17.97242,0 0,-2.76958 12.97123,-16.3585 -12.97123,0 0,-3.12823 17.97242,0 0,2.66996 -13.36973,16.41827 13.36973,0 z"
         id="path4203"
         inkscape:connector-curvature="0"
         sodipodi:nodetypes="ccccccccccc" />
    </g>
    <text
       transform="scale(1.0697977,0.93475616)"
       sodipodi:linespacing="125%"
       id="text4191"
       y="125.21403"
       x="641.79474"
       style="font-style:normal;font-weight:normal;font-size:52.61650848px;line-height:125%;font-family:sans-serif;text-align:center;letter-spacing:0px;word-spacing:0px;writing-mode:lr-tb;text-anchor:middle;fill:#000000;fill-opacity:1;stroke:none;stroke-width:1px;stroke-linecap:butt;stroke-linejoin:miter;stroke-opacity:1"
       xml:space="preserve"><tspan
         y="125.21403"
         x="641.79474"
         id="tspan4193"
         sodipodi:role="line">я</tspan></text>
    <text
       xml:space="preserve"
       style="font-style:normal;font-weight:normal;font-size:50.44651031px;line-height:125%;font-family:sans-serif;text-align:center;letter-spacing:0px;word-spacing:0px;writing-mode:lr-tb;text-anchor:middle;fill:#000000;fill-opacity:1;stroke:none;stroke-width:1px;stroke-linecap:butt;stroke-linejoin:miter;stroke-opacity:1"
       x="716.74225"
       y="111.21947"
       id="text4195"
       sodipodi:linespacing="125%"
       transform="scale(0.91824312,1.0890362)"><tspan
         sodipodi:role="line"
         id="tspan4197"
         x="716.74225"
         y="111.21947">≡</tspan></text>
    <text
       xml:space="preserve"
       style="font-style:normal;font-weight:normal;font-size:15.65591621px;line-height:200%;font-family:sans-serif;text-align:end;letter-spacing:0px;word-spacing:0px;writing-mode:lr-tb;text-anchor:end;fill:#000000;fill-opacity:1;stroke:none;stroke-width:1px;stroke-linecap:butt;stroke-linejoin:miter;stroke-opacity:1"
       x="642.47406"
       y="139.71957"
       id="text4210"
       sodipodi:linespacing="200%"><tspan
         sodipodi:role="line"
         id="tspan4212"
         x="642.47406"
         y="139.71957"
         style="font-style:normal;font-variant:normal;font-weight:normal;font-stretch:normal;line-height:200%;font-family:Arial;-inkscape-font-specification:Arial;text-align:end;text-anchor:end">основное меню</tspan><tspan
         sodipodi:role="line"
         x="642.47406"
         y="171.0314"
         id="tspan4214"
         style="font-style:normal;font-variant:normal;font-weight:normal;font-stretch:normal;line-height:200%;font-family:Arial;-inkscape-font-specification:Arial;text-align:end;text-anchor:end">смена языка интерфейса</tspan><tspan
         sodipodi:role="line"
         x="642.47406"
         y="202.34323"
         id="tspan4218"
         style="font-style:normal;font-variant:normal;font-weight:normal;font-stretch:normal;line-height:200%;font-family:Arial;-inkscape-font-specification:Arial;text-align:end;text-anchor:end">режим сна</tspan><tspan
         sodipodi:role="line"
         x="642.47406"
         y="233.65508"
         style="font-style:normal;font-variant:normal;font-weight:normal;font-stretch:normal;line-height:200%;font-family:Arial;-inkscape-font-specification:Arial;text-align:end;text-anchor:end"
         id="tspan4224">справка</tspan><tspan
         sodipodi:role="line"
         x="642.47406"
         y="264.96692"
         id="tspan4220"
         style="font-style:normal;font-variant:normal;font-weight:normal;font-stretch:normal;line-height:200%;font-family:Arial;-inkscape-font-specification:Arial;text-align:end;text-anchor:end">завершение программы</tspan></text>
    <text
       sodipodi:linespacing="200%"
       id="text4254"
       y="155.36841"
       x="641.99988"
       style="font-style:normal;font-weight:normal;font-size:15.65591621px;line-height:200%;font-family:sans-serif;text-align:end;letter-spacing:0px;word-spacing:0px;writing-mode:lr-tb;text-anchor:end;fill:#aeaeae;fill-opacity:1;stroke:none;stroke-width:1px;stroke-linecap:butt;stroke-linejoin:miter;stroke-opacity:1"
       xml:space="preserve"><tspan
         style="font-style:normal;font-variant:normal;font-weight:normal;font-stretch:normal;line-height:200%;font-family:Arial;-inkscape-font-specification:Arial;text-align:end;text-anchor:end;fill:#aeaeae;fill-opacity:1"
         y="155.36841"
         x="641.99988"
         id="tspan4256"
         sodipodi:role="line">main menu</tspan><tspan
         style="font-style:normal;font-variant:normal;font-weight:normal;font-stretch:normal;line-height:200%;font-family:Arial;-inkscape-font-specification:Arial;text-align:end;text-anchor:end;fill:#aeaeae;fill-opacity:1"
         id="tspan4258"
         y="186.68024"
         x="641.99988"
         sodipodi:role="line">change interface language</tspan><tspan
         style="font-style:normal;font-variant:normal;font-weight:normal;font-stretch:normal;line-height:200%;font-family:Arial;-inkscape-font-specification:Arial;text-align:end;text-anchor:end;fill:#aeaeae;fill-opacity:1"
         id="tspan4260"
         y="217.99207"
         x="641.99988"
         sodipodi:role="line">sleep mode</tspan><tspan
         id="tspan4262"
         style="font-style:normal;font-variant:normal;font-weight:normal;font-stretch:normal;line-height:200%;font-family:Arial;-inkscape-font-specification:Arial;text-align:end;text-anchor:end;fill:#aeaeae;fill-opacity:1"
         y="249.30391"
         x="641.99988"
         sodipodi:role="line">help</tspan><tspan
         style="font-style:normal;font-variant:normal;font-weight:normal;font-stretch:normal;line-height:200%;font-family:Arial;-inkscape-font-specification:Arial;text-align:end;text-anchor:end;fill:#aeaeae;fill-opacity:1"
         id="tspan4264"
         y="280.61572"
         x="641.99988"
         sodipodi:role="line">program completion</tspan></text>
    <g
       id="g4304"
       style="fill:none;stroke:#000000;stroke-width:1;stroke-miterlimit:4;stroke-dasharray:1, 2;stroke-dashoffset:0;stroke-opacity:1"
       transform="matrix(1.3412618,0,0,1.3412618,137.81215,-162.7369)">
      <path
         inkscape:connector-curvature="0"
         id="path4292"
         d="m 387.92506,210.19517 0,17.70285 -9.15555,0"
         style="fill:none;fill-rule:evenodd;stroke:#000000;stroke-width:1;stroke-linecap:butt;stroke-linejoin:miter;stroke-miterlimit:4;stroke-dasharray:1, 2;stroke-dashoffset:0;stroke-opacity:1" />
      <path
         style="fill:none;fill-rule:evenodd;stroke:#000000;stroke-width:1;stroke-linecap:butt;stroke-linejoin:miter;stroke-miterlimit:4;stroke-dasharray:1, 2;stroke-dashoffset:0;stroke-opacity:1"
         d="m 408.62954,210.2348 0,40.87028 -29.89107,0"
         id="path4294"
         inkscape:connector-curvature="0" />
      <path
         inkscape:connector-curvature="0"
         id="path4296"
         d="m 426.98413,210.25738 0,63.19981 -48.26873,0"
         style="fill:none;fill-rule:evenodd;stroke:#000000;stroke-width:1;stroke-linecap:butt;stroke-linejoin:miter;stroke-miterlimit:4;stroke-dasharray:1, 2;stroke-dashoffset:0;stroke-opacity:1" />
      <path
         inkscape:connector-curvature="0"
         id="path4300"
         d="m 447.68351,210.27772 0,87.87168 -68.98874,0"
         style="fill:none;fill-rule:evenodd;stroke:#000000;stroke-width:1;stroke-linecap:butt;stroke-linejoin:miter;stroke-miterlimit:4;stroke-dasharray:1, 2;stroke-dashoffset:0;stroke-opacity:1" />
      <path
         style="fill:none;fill-rule:evenodd;stroke:#000000;stroke-width:1;stroke-linecap:butt;stroke-linejoin:miter;stroke-miterlimit:4;stroke-dasharray:1, 2;stroke-dashoffset:0;stroke-opacity:1"
         d="m 468.4036,210.3075 0,110.74994 -89.73908,0"
         id="path4302"
         inkscape:connector-curvature="0" />
    </g>
    <g
       id="g4323"
       transform="matrix(1.9715692,0,0,1.9715692,-170.19829,-285.45294)">
      <text
         sodipodi:linespacing="125%"
         id="text4311"
         y="377.11377"
         x="184.10858"
         style="font-style:normal;font-weight:normal;font-size:8.56499958px;line-height:125%;font-family:sans-serif;text-align:start;letter-spacing:0px;word-spacing:0px;writing-mode:lr-tb;text-anchor:start;fill:#000000;fill-opacity:1;stroke:none;stroke-width:1px;stroke-linecap:butt;stroke-linejoin:miter;stroke-opacity:1"
         xml:space="preserve"><tspan
           y="377.11377"
           x="184.10858"
           id="tspan4313"
           sodipodi:role="line">© Денис Тимошин aka TimKruz aka Тимофей Крузенштерн, 2016</tspan></text>
      <text
         xml:space="preserve"
         style="font-style:normal;font-weight:normal;font-size:8.56499958px;line-height:125%;font-family:sans-serif;text-align:start;letter-spacing:0px;word-spacing:0px;writing-mode:lr-tb;text-anchor:start;fill:#aeaeae;fill-opacity:1;stroke:none;stroke-width:1px;stroke-linecap:butt;stroke-linejoin:miter;stroke-opacity:1"
         x="184.10858"
         y="386.14182"
         id="text4315"
         sodipodi:linespacing="125%"><tspan
           dx="0 0 0 0 0 0 0 0 3.0583389 0 0 0 0 0 0 0 -3.0583389 0 1.2159593 0 0 -1.2159593 0 -1.2159593 0 0 0 0 0 0 1.2159593 -1.2159593 0 0 1.2159593 -1.2132282 0 0 0 0 0 0 -0.30672094 4.7827096 0 0 0 0 0 0 0 0 0 0 0 0 -3.2627614 0 0 -0.91196948"
           sodipodi:role="line"
           id="tspan4317"
           x="184.10858"
           y="386.14182">© Denis Timoshin  aka  TimKruz aka Timothy Kruzenshtern,   2016</tspan></text>
    </g>
    <text
       transform="scale(1.0930016,0.91491175)"
       sodipodi:linespacing="125%"
       id="text4319"
       y="127.92992"
       x="675.75848"
       style="font-style:normal;font-weight:normal;font-size:53.75775909px;line-height:125%;font-family:sans-serif;text-align:center;letter-spacing:0px;word-spacing:0px;writing-mode:lr-tb;text-anchor:middle;fill:#000000;fill-opacity:1;stroke:none;stroke-width:1px;stroke-linecap:butt;stroke-linejoin:miter;stroke-opacity:1"
       xml:space="preserve"><tspan
         y="127.92992"
         x="675.75848"
         id="tspan4321"
         sodipodi:role="line">н</tspan></text>
    <g
       id="g4366"
       transform="matrix(0.86884211,0,0,0.86884211,416.05471,305.29974)">
      <path
         id="path4347"
         transform="translate(-2.92,-1.79)"
         d="m 33.42,15.71 c 0,0 48.31,9 39.65,55.82 -7.87,46.25 43.71,61.14 43.71,61.14 A 71.81318,71.81318 0 0 0 33.42,15.71 Z"
         class="cls-1"
         inkscape:connector-curvature="0"
         style="fill:#fbef6a" />
      <path
         id="path4349"
         transform="translate(-2.92,-1.79)"
         d="M 33.25,15.83 C 1.39,38.61 -6.31,83.63 16.76,115.89 a 71.73,71.73 0 0 0 100.1,16.72 c 0,0 -51.66,-14.83 -43.79,-61.08 8.66,-46.82 -39.82,-55.7 -39.82,-55.7 z"
         class="cls-2"
         inkscape:connector-curvature="0"
         style="fill:#bef574" />
      <path
         id="path4351"
         transform="translate(-2.92,-1.79)"
         d="M 133.52,32.37 A 71.72,71.72 0 0 0 33.42,15.68 l -0.17,0.06 C 1.39,38.52 -6.31,83.5 16.76,115.76 c 23.07,32.26 67.76,42.74 100,16.74 l 0,0 0,0 c 32.69,-23 39.8,-67.89 16.76,-100.13 z"
         class="cls-3"
         inkscape:connector-curvature="0"
         style="fill:none;stroke:#000000" />
      <polygon
         id="polygon4353"
         points="20.93,111.59 17.81,108.58 20.79,99.41 22.2,97.94 27.31,94.49 23.7,86.41 17.69,87.77 15.67,87.81 6.96,83.76 6.88,79.35 15.42,75.06 17.43,75.02 23.5,76.15 26.79,67.93 21.55,64.68 20.08,63.27 16.74,54.22 19.75,51.09 28.92,54.08 30.38,55.49 33.84,60.6 41.92,56.99 40.55,50.97 40.52,48.96 44.47,40.25 48.88,40.16 53.27,48.71 53.31,50.72 52.18,56.79 60.4,60.08 63.65,54.84 65.06,53.37 74.1,50.03 77.23,53.03 74.25,62.2 72.84,63.67 67.73,67.13 71.24,75.21 71.24,75.21 77.26,73.84 79.27,73.81 88.08,77.76 88.16,82.17 79.52,86.56 77.51,86.59 71.44,85.47 68.25,93.68 73.49,96.94 74.96,98.35 78.3,107.39 75.29,110.52 66.12,107.53 64.66,106.13 61.2,101.01 53.12,104.53 54.48,110.55 54.52,112.56 50.47,121.36 46.06,121.45 41.77,112.81 41.73,110.8 42.86,104.73 34.64,101.54 31.39,106.78 29.98,108.25 "
         class="cls-4"
         style="fill:#7bde5e;stroke:#000000" />
      <polygon
         id="polygon4355"
         points="70.07,72.63 68.83,68.79 76.33,61.5 77.87,61 84.89,60.75 86.63,52.67 80.31,49.52 79.14,48.52 75.25,38.75 77.99,35.75 88.04,38.65 89.24,39.75 92.94,45.65 100.91,43.08 100.47,36.13 100.7,34.57 107.16,26.34 111.14,27.18 113.69,37.37 113.32,38.87 110.04,45.12 116.17,50.66 116.17,50.66 122.01,46.77 123.55,46.27 133.9,47.81 135.13,51.64 127.63,58.94 126.07,59.34 119.05,59.59 117.34,67.77 123.66,70.92 124.83,71.92 128.69,81.59 125.95,84.59 115.93,81.78 114.83,80.66 111.09,74.66 103.13,77.22 103.6,84.28 103.27,85.87 96.78,94 92.8,93.16 90.28,83.06 90.65,81.57 93.93,75.32 87.77,69.68 81.92,73.57 80.42,74.17 "
         class="cls-4"
         style="fill:#7bde5e;stroke:#000000" />
      <polygon
         id="polygon4357"
         points="54.69,62.21 56.65,67.17 56.65,67.17 56.65,67.17 46.88,71.04 55.86,93.67 50.12,95.95 41.15,73.32 31.37,77.19 29.41,72.24 "
         class="cls-5"
         style="fill:#bef574;stroke:#000000" />
      <path
         id="path4359"
         transform="translate(-2.92,-1.79)"
         d="m 117.67,70.51 -5.14,1.06 c 0,0 -12.28,-7.12 -12.53,-7.21 l 1.93,9.39 -3.9,0.8 -4.47,-21.47 3.9,-0.8 2,9.45 c 0.21,-0.35 8,-11.51 8,-11.51 l 4.79,-1 -9.25,12.92 14.66,8.37 0,0 z"
         class="cls-6"
         inkscape:connector-curvature="0"
         style="fill:#fbef6a;stroke:#000000" />
    </g>
  </g>
</svg>
