<?xml version="1.0" encoding="UTF-8" standalone="no"?>
<!-- Created with Inkscape (http://www.inkscape.org/) -->

<svg
   xmlns:dc="http://purl.org/dc/elements/1.1/"
   xmlns:cc="http://creativecommons.org/ns#"
   xmlns:rdf="http://www.w3.org/1999/02/22-rdf-syntax-ns#"
   xmlns:svg="http://www.w3.org/2000/svg"
   xmlns="http://www.w3.org/2000/svg"
   xmlns:xlink="http://www.w3.org/1999/xlink"
   xmlns:sodipodi="http://sodipodi.sourceforge.net/DTD/sodipodi-0.dtd"
   xmlns:inkscape="http://www.inkscape.org/namespaces/inkscape"
   width="332.1535mm"
   height="266.01431mm"
   viewBox="0 0 1176.9219 942.5704"
   id="svg2"
   version="1.1"
   inkscape:version="0.91 r13725"
   sodipodi:docname="SplashScreen.svg"
   inkscape:export-filename="C:\Users\TimKruz\Documents\Projects\ProjectAV\Resources\Windows\SplashScreen\SplashScreenEmpty.png"
   inkscape:export-xdpi="61.176533"
   inkscape:export-ydpi="61.176533">
  <defs
     id="defs4">
    <linearGradient
       id="linearGradient21854">
      <stop
         id="stop21856"
         offset="0"
         style="stop-color:#800080;stop-opacity:1;" />
      <stop
         style="stop-color:#ff80ff;stop-opacity:1;"
         offset="0.44"
         id="stop21870" />
      <stop
         id="stop21872"
         offset="0.56999999"
         style="stop-color:#80ffff;stop-opacity:1;" />
      <stop
         id="stop21858"
         offset="1"
         style="stop-color:#008080;stop-opacity:1;" />
    </linearGradient>
    <linearGradient
       gradientTransform="translate(-828.32509,72.730991)"
       gradientUnits="userSpaceOnUse"
       y2="474.16827"
       x2="1707.1989"
       y1="712.56421"
       x1="1006.5522"
       id="linearGradient21880"
       xlink:href="#linearGradient21854"
       inkscape:collect="always" />
    <filter
       height="1.2498049"
       y="-0.12490247"
       width="1.2309357"
       x="-0.11546784"
       id="filter21886"
       inkscape:collect="always">
      <feGaussianBlur
         id="feGaussianBlur21888"
         stdDeviation="32.523152"
         inkscape:collect="always" />
    </filter>
    <filter
       inkscape:collect="always"
       style="color-interpolation-filters:sRGB"
       id="filter4147"
       x="-0.007143635"
       width="1.0142873"
       y="-0.037478576"
       height="1.0749572">
      <feGaussianBlur
         inkscape:collect="always"
         stdDeviation="3.5031252"
         id="feGaussianBlur4149" />
    </filter>
    <filter
       inkscape:collect="always"
       style="color-interpolation-filters:sRGB"
       id="filter4181"
       x="-0.13856141"
       width="1.2771228"
       y="-0.14988297"
       height="1.2997659">
      <feGaussianBlur
         inkscape:collect="always"
         stdDeviation="39.027783"
         id="feGaussianBlur4183" />
    </filter>
  </defs>
  <sodipodi:namedview
     id="base"
     pagecolor="#ffffff"
     bordercolor="#666666"
     borderopacity="1.0"
     inkscape:pageopacity="0.0"
     inkscape:pageshadow="2"
     inkscape:zoom="0.54099825"
     inkscape:cx="552.96294"
     inkscape:cy="647.79713"
     inkscape:document-units="px"
     inkscape:current-layer="layer1-7"
     showgrid="false"
     showguides="true"
     inkscape:window-width="1440"
     inkscape:window-height="847"
     inkscape:window-x="-8"
     inkscape:window-y="-8"
     inkscape:window-maximized="1"
     inkscape:snap-bbox="true"
     inkscape:bbox-paths="true"
     inkscape:bbox-nodes="true"
     inkscape:snap-bbox-edge-midpoints="true"
     inkscape:snap-bbox-midpoints="true"
     inkscape:object-paths="true"
     inkscape:snap-intersection-paths="true"
     inkscape:object-nodes="true"
     inkscape:snap-midpoints="true"
     inkscape:snap-smooth-nodes="true"
     inkscape:snap-global="true"
     fit-margin-top="0"
     fit-margin-left="0"
     fit-margin-right="0"
     fit-margin-bottom="0" />
  <metadata
     id="metadata7">
    <rdf:RDF>
      <cc:Work
         rdf:about="">
        <dc:format>image/svg+xml</dc:format>
        <dc:type
           rdf:resource="http://purl.org/dc/dcmitype/StillImage" />
        <dc:title />
      </cc:Work>
    </rdf:RDF>
  </metadata>
  <g
     inkscape:label="Layer 1"
     inkscape:groupmode="layer"
     id="layer1"
     transform="translate(93.933594,84.125037)">
    <path
       inkscape:connector-curvature="0"
       id="path4145"
       d="m -57.005859,634.11719 a 36.92749,36.92749 0 0 0 -36.927735,36.92578 36.92749,36.92749 0 0 0 24.898438,34.87305 l 0,-15.1875 c 0,-2.03856 0.204853,-4.02745 0.595703,-5.94727 0.39085,-1.91982 0.968103,-3.771 1.710937,-5.5332 0.742834,-1.76221 1.651079,-3.43625 2.707032,-5.00196 0.650387,-0.96435 1.363574,-1.88194 2.121093,-2.75976 0.472371,-0.54739 0.957852,-1.0828 1.46875,-1.59375 1.330205,-1.33033 2.787925,-2.53183 4.353516,-3.58789 1.565591,-1.05607 3.237888,-1.96606 5,-2.70899 1.762112,-0.74292 3.613436,-1.32003 5.533203,-1.71093 1.919767,-0.39091 3.90871,-0.59571 5.947266,-0.59571 l 18.201172,0 a 36.92749,36.92749 0 0 0 -35.609375,-27.17187 z m 35.609375,27.17187 a 36.92749,36.92749 0 0 1 1.318359,9.75391 36.92749,36.92749 0 0 1 -36.927734,36.92773 36.92749,36.92749 0 0 1 -12.029297,-2.05468 l 0,40.36523 0,40.36523 a 36.92749,36.92749 0 0 1 12.029297,-2.05468 36.92749,36.92749 0 0 1 36.927734,36.92773 36.92749,36.92749 0 0 1 -1.318359,9.75391 l 441.619144,0 54.30468,0 40,0 71.36133,0 424.56253,0 a 36.92749,36.92749 0 0 1 -1.3184,-9.75391 36.92749,36.92749 0 0 1 36.9277,-36.92773 36.92749,36.92749 0 0 1 12.0293,2.05468 l 0,-40.36523 0,-40.36523 a 36.92749,36.92749 0 0 1 -12.0293,2.05468 36.92749,36.92749 0 0 1 -36.9277,-36.92773 36.92749,36.92749 0 0 1 1.3184,-9.75391 l -424.56253,0 -71.36133,0 -40,0 -54.30468,0 -441.619144,0 z m 1031.847684,0 18.2011,0 c 2.0386,0 4.0275,0.2048 5.9473,0.59571 1.9198,0.3909 3.7712,0.96801 5.5332,1.71093 1.7621,0.74293 3.4344,1.65292 5,2.70899 1.5656,1.05606 3.0233,2.25756 4.3535,3.58789 0.5109,0.51095 0.9964,1.04636 1.4688,1.59375 0.7575,0.87782 1.4708,1.79541 2.1211,2.75976 1.056,1.56571 1.9641,3.23975 2.707,5.00196 0.7428,1.7622 1.3201,3.61338 1.7109,5.5332 0.3909,1.91982 0.5957,3.90871 0.5957,5.94727 l 0,15.1875 a 36.92749,36.92749 0 0 0 24.8985,-34.87305 36.92749,36.92749 0 0 0 -36.9278,-36.92578 36.92749,36.92749 0 0 0 -0.121,0 36.92749,36.92749 0 0 0 -35.4883,27.17187 z m 47.6386,125.35742 0,15.1875 c 0,2.03856 -0.2048,4.02745 -0.5957,5.94727 -0.3908,1.91982 -0.9681,3.771 -1.7109,5.5332 -0.7429,1.76221 -1.651,3.43625 -2.707,5.00196 -0.6503,0.96435 -1.3636,1.88194 -2.1211,2.75976 -0.4724,0.54739 -0.9579,1.0828 -1.4688,1.59375 -1.3302,1.33033 -2.7879,2.53183 -4.3535,3.58789 -1.5656,1.05607 -3.2379,1.96606 -5,2.70899 -1.762,0.74292 -3.6134,1.32003 -5.5332,1.71093 -1.9198,0.39091 -3.9087,0.59571 -5.9473,0.59571 l -18.2011,0 a 36.92749,36.92749 0 0 0 35.6093,27.17187 36.92749,36.92749 0 0 0 36.9278,-36.92578 36.92749,36.92749 0 0 0 -24.8985,-34.87305 z m -1079.486284,44.62696 -18.201172,0 c -2.038556,0 -4.027499,-0.2048 -5.947266,-0.59571 -1.919767,-0.3909 -3.771091,-0.96801 -5.533203,-1.71093 -1.762112,-0.74293 -3.434409,-1.65292 -5,-2.70899 -1.565591,-1.05606 -3.023311,-2.25756 -4.353516,-3.58789 -0.510898,-0.51095 -0.996379,-1.04636 -1.46875,-1.59375 -0.757519,-0.87782 -1.470706,-1.79541 -2.121093,-2.75976 -1.055953,-1.56571 -1.964198,-3.23975 -2.707032,-5.00196 -0.742834,-1.7622 -1.320087,-3.61338 -1.710937,-5.5332 -0.39085,-1.91982 -0.595703,-3.90871 -0.595703,-5.94727 l 0,-15.1875 a 36.92749,36.92749 0 0 0 -24.898438,34.87305 36.92749,36.92749 0 0 0 36.927735,36.92578 36.92749,36.92749 0 0 0 35.609375,-27.17187 z m 15.3378902,-161.28321 11.5625,0 0,22.53907 22.6562498,0 0,-22.53907 11.5625,0 0,57.26563 -11.5625,0 0,-25.03906 -22.6562498,0 0,25.03906 -11.5625,0 0,-57.26563 z m 989.2968738,0 11.875,0 0,13.4375 -2.8125,29.0625 -6.21094,0 -2.85156,-29.0625 0,-13.4375 z M 67.847656,684.83398 c 4.895834,0 8.541667,0.58594 10.9375,1.75782 2.395834,1.14583 4.075521,2.61719 5.039063,4.41406 0.989583,1.77083 1.484375,5.03906 1.484375,9.80469 l -0.117188,12.8125 c 0,3.64583 0.169271,6.34114 0.507813,8.08593 0.364583,1.71875 1.028646,3.56771 1.992187,5.54688 l -10.859375,0 c -0.286458,-0.72917 -0.638021,-1.80989 -1.054687,-3.24219 -0.182292,-0.65104 -0.312501,-1.08073 -0.390625,-1.28906 -1.875,1.82292 -3.880209,3.19011 -6.015625,4.10156 -2.135417,0.91146 -4.414062,1.36719 -6.835938,1.36719 -4.270833,0 -7.643229,-1.15886 -10.117187,-3.47656 -2.447917,-2.31771 -3.671875,-5.2474 -3.671875,-8.78907 0,-2.34375 0.559896,-4.42708 1.679687,-6.25 1.119792,-1.84896 2.682292,-3.25521 4.6875,-4.21875 2.03125,-0.98958 4.947917,-1.84895 8.75,-2.57812 5.130209,-0.96354 8.684896,-1.86198 10.664063,-2.69531 l 0,-1.09375 c 0,-2.10938 -0.520834,-3.60677 -1.5625,-4.49219 -1.041667,-0.91146 -3.007812,-1.36719 -5.898438,-1.36719 -1.953124,0 -3.476562,0.39062 -4.570312,1.17188 -1.09375,0.7552 -1.979167,2.09635 -2.65625,4.02343 l -9.960938,-1.79687 c 1.119792,-4.01041 3.046876,-6.97916 5.78125,-8.90625 2.734376,-1.92708 6.796876,-2.89063 12.1875,-2.89063 z m 265.703124,0 c 6.17187,0 11.04167,2.04428 14.60938,6.13282 3.5677,4.0625 5.27343,10.29947 5.11718,18.71093 l -27.5,0 c 0.0781,3.25521 0.96355,5.79428 2.65625,7.61719 1.69271,1.79688 3.80209,2.69531 6.32813,2.69531 1.71875,0 3.16406,-0.46875 4.33594,-1.40625 1.17187,-0.9375 2.05729,-2.44791 2.65625,-4.53125 l 10.9375,1.83594 c -1.40625,4.01042 -3.63281,7.07032 -6.67969,9.17969 -3.02083,2.08333 -6.8099,3.125 -11.36719,3.125 -7.21355,0 -12.55208,-2.35677 -16.01562,-7.07031 -2.73438,-3.77604 -4.10157,-8.54166 -4.10157,-14.29688 0,-6.875 1.79688,-12.2526 5.39063,-16.13281 3.59375,-3.90625 8.13802,-5.85938 13.63281,-5.85938 z m 210.78125,0 c 5.05208,0 9.0625,1.09375 12.03125,3.28125 2.99479,2.16146 5.14323,5.46875 6.44531,9.92188 l -10.82031,1.95312 c -0.36459,-2.16146 -1.19792,-3.78905 -2.5,-4.88281 -1.27605,-1.09374 -2.94271,-1.64062 -5,-1.64062 -2.73438,0 -4.92188,0.95052 -6.5625,2.85156 -1.61459,1.875 -2.42187,5.02604 -2.42187,9.45312 0,4.92188 0.82031,8.39845 2.46093,10.42969 1.66667,2.03126 3.89323,3.04688 6.67969,3.04688 2.08333,0 3.78907,-0.58594 5.11719,-1.75782 1.32813,-1.19792 2.26563,-3.24218 2.8125,-6.13281 l 10.78125,1.83594 c -1.11979,4.94792 -3.26823,8.6849 -6.44531,11.21094 -3.17708,2.52604 -7.43489,3.78906 -12.77344,3.78906 -6.06771,0 -10.91146,-1.91406 -14.53125,-5.74219 -3.59375,-3.82812 -5.39063,-9.1276 -5.39063,-15.89844 0,-6.84896 1.8099,-12.17447 5.42969,-15.97656 3.61979,-3.82812 8.51562,-5.74219 14.6875,-5.74219 z m 42.65625,0 c 6.17187,0 11.04167,2.04428 14.60938,6.13282 3.5677,4.0625 5.27343,10.29947 5.11718,18.71093 l -27.5,0 c 0.0781,3.25521 0.96355,5.79428 2.65625,7.61719 1.69271,1.79688 3.80209,2.69531 6.32813,2.69531 1.71875,0 3.16406,-0.46875 4.33594,-1.40625 1.17187,-0.9375 2.05729,-2.44791 2.65625,-4.53125 l 10.9375,1.83594 c -1.40625,4.01042 -3.63281,7.07032 -6.67969,9.17969 -3.02083,2.08333 -6.8099,3.125 -11.36719,3.125 -7.21355,0 -12.55208,-2.35677 -16.01562,-7.07031 -2.73438,-3.77604 -4.10157,-8.54166 -4.10157,-14.29688 0,-6.875 1.79688,-12.2526 5.39063,-16.13281 3.59375,-3.90625 8.13802,-5.85938 13.63281,-5.85938 z m 221.875,0 c 5.05208,0 9.0625,1.09375 12.03125,3.28125 2.99479,2.16146 5.14323,5.46875 6.44531,9.92188 l -10.82031,1.95312 c -0.36459,-2.16146 -1.19792,-3.78905 -2.5,-4.88281 -1.27605,-1.09374 -2.94271,-1.64062 -5,-1.64062 -2.73438,0 -4.92188,0.95052 -6.5625,2.85156 -1.61459,1.875 -2.42187,5.02604 -2.42187,9.45312 0,4.92188 0.82031,8.39845 2.46093,10.42969 1.66667,2.03126 3.89323,3.04688 6.67969,3.04688 2.08333,0 3.78907,-0.58594 5.11719,-1.75782 1.32813,-1.19792 2.26563,-3.24218 2.8125,-6.13281 l 10.78125,1.83594 c -1.11979,4.94792 -3.26823,8.6849 -6.44531,11.21094 -3.17708,2.52604 -7.43489,3.78906 -12.77344,3.78906 -6.06771,0 -10.91146,-1.91406 -14.53125,-5.74219 -3.59375,-3.82812 -5.39063,-9.1276 -5.39063,-15.89844 0,-6.84896 1.8099,-12.17447 5.42969,-15.97656 3.61979,-3.82812 8.51562,-5.74219 14.6875,-5.74219 z m 42.65625,0 c 6.17187,0 11.04167,2.04428 14.60938,6.13282 3.5677,4.0625 5.27343,10.29947 5.11718,18.71093 l -27.5,0 c 0.0781,3.25521 0.96355,5.79428 2.65625,7.61719 1.69271,1.79688 3.80209,2.69531 6.32813,2.69531 1.71875,0 3.16406,-0.46875 4.33594,-1.40625 1.17187,-0.9375 2.05729,-2.44791 2.65625,-4.53125 l 10.9375,1.83594 c -1.40625,4.01042 -3.63281,7.07032 -6.67969,9.17969 -3.02083,2.08333 -6.8099,3.125 -11.36719,3.125 -7.21355,0 -12.55208,-2.35677 -16.01562,-7.07031 -2.73438,-3.77604 -4.10157,-8.54166 -4.10157,-14.29688 0,-6.875 1.79688,-12.2526 5.39063,-16.13281 3.59375,-3.90625 8.13802,-5.85938 13.63281,-5.85938 z m -760.546874,0.9375 11.679684,0 9.92188,29.45313 9.6875,-29.45313 11.36719,0 -14.64844,39.92188 -2.61719,7.22656 c -0.96355,2.42188 -1.88802,4.27084 -2.77344,5.54688 -0.85937,1.27604 -1.86198,2.30468 -3.00781,3.08593 -1.11979,0.80729 -2.51302,1.43229 -4.17969,1.875 -1.64062,0.44271 -3.5026,0.66407 -5.58593,0.66407 -2.109379,0 -4.179688,-0.22136 -6.210941,-0.66407 l -0.976563,-8.59375 c 1.718754,0.33854 3.268231,0.50782 4.648438,0.50782 2.552076,0 4.440106,-0.75521 5.664066,-2.26563 1.22396,-1.48437 2.16146,-3.38542 2.8125,-5.70312 L 90.972656,685.77148 Z m 48.125004,0 11.09375,0 0,9.92188 c 0,2.26563 0.19531,3.95833 0.58593,5.07812 0.41667,1.09375 1.27605,2.04427 2.57813,2.85157 1.32813,0.78124 2.99479,1.17187 5,1.17187 1.95313,0 4.14063,-0.44271 6.5625,-1.32812 l 0,-17.69532 10.97656,0 0,41.48438 -10.97656,0 0,-16.5625 c -4.27083,1.14583 -7.52605,1.71875 -9.76563,1.71875 -3.35937,0 -6.3802,-0.71614 -9.0625,-2.14844 -2.68229,-1.45833 -4.51823,-3.30729 -5.50781,-5.54687 -0.98959,-2.26563 -1.48437,-5.27344 -1.48437,-9.02344 l 0,-9.92188 z m 47.42187,0 10.54688,0 0,26.05469 16.875,-26.05469 10.78125,0 0,41.48438 -10.54688,0 0,-26.52344 -17.10937,26.52344 -10.54688,0 0,-41.48438 z m 71.99219,0 13.59375,0 10.3125,28.90625 10.39062,-28.90625 13.55469,0 0,41.48438 -9.33594,0 0,-27.30469 -10.11718,27.30469 -9.375,0 -9.64844,-27.30469 0,27.30469 -9.375,0 0,-41.48438 z m 103.32031,0 10.97656,0 0,15.19532 15.70313,0 0,-15.19532 11.01562,0 0,41.48438 -11.01562,0 0,-17.42188 -15.70313,0 0,17.42188 -10.97656,0 0,-41.48438 z m 62.65625,0 21.60156,0 0,41.48438 -10.89843,0 0,-17.22656 -1.01563,0 c -2.36979,0 -4.11458,0.3125 -5.23437,0.9375 -1.09375,0.59896 -2.31771,1.88802 -3.67188,3.86718 l -0.66406,0.82032 -7.22656,11.60156 -12.77344,0 7.85156,-12.03125 c 2.23958,-3.4375 4.27083,-5.41667 6.09375,-5.9375 -3.07292,-0.18229 -5.57292,-1.34115 -7.5,-3.47656 -1.90105,-2.16146 -2.85156,-4.90886 -2.85156,-8.24219 0,-2.68229 0.625,-4.97396 1.875,-6.875 1.27605,-1.90104 2.95573,-3.1901 5.03906,-3.86719 2.10937,-0.70312 5.23437,-1.05469 9.375,-1.05469 z m 55.07813,0 24.02343,0 c 4.92188,0 8.60677,0.89844 11.05469,2.69532 2.44791,1.79687 3.67188,4.5052 3.67188,8.125 0,2.3177 -0.67709,4.33593 -2.03125,6.05468 -1.32813,1.71875 -3.00782,2.86458 -5.03907,3.4375 2.86458,0.70312 5,2.01823 6.40625,3.94532 1.40625,1.92708 2.10938,4.03646 2.10938,6.32812 0,3.22917 -1.1849,5.85937 -3.55469,7.89063 -2.36979,2.0052 -5.87239,3.00781 -10.50781,3.00781 l -26.13281,0 0,-41.48438 z m 135.35156,0 13.59375,0 10.3125,28.90625 10.39062,-28.90625 13.55469,0 0,41.48438 -9.33594,0 0,-27.30469 -10.11718,27.30469 -9.375,0 -9.64844,-27.30469 0,27.30469 -9.375,0 0,-41.48438 z m 52.92969,0 11.67968,0 9.92188,29.45313 9.6875,-29.45313 11.36719,0 -14.64844,39.92188 -2.61719,7.22656 c -0.96355,2.42188 -1.88802,4.27084 -2.77344,5.54688 -0.85937,1.27604 -1.86198,2.30468 -3.00781,3.08593 -1.11979,0.80729 -2.51302,1.43229 -4.17969,1.875 -1.64062,0.44271 -3.5026,0.66407 -5.58593,0.66407 -2.10938,0 -4.17969,-0.22136 -6.21094,-0.66407 l -0.97656,-8.59375 c 1.71875,0.33854 3.26823,0.50782 4.64843,0.50782 2.55208,0 4.44011,-0.75521 5.66407,-2.26563 1.22396,-1.48437 2.16146,-3.38542 2.8125,-5.70312 l -15.78125,-41.60157 z m 76.25,0 24.02343,0 c 4.92188,0 8.60677,0.89844 11.05469,2.69532 2.44791,1.79687 3.67188,4.5052 3.67188,8.125 0,2.3177 -0.67709,4.33593 -2.03125,6.05468 -1.32813,1.71875 -3.00782,2.86458 -5.03907,3.4375 2.86458,0.70312 5,2.01823 6.40625,3.94532 1.40625,1.92708 2.10938,4.03646 2.10938,6.32812 0,3.22917 -1.1849,5.85937 -3.55469,7.89063 -2.36979,2.0052 -5.87239,3.00781 -10.50781,3.00781 l -26.13281,0 0,-41.48438 z m 135.35156,0 13.59375,0 10.3125,28.90625 10.39062,-28.90625 13.55469,0 0,41.48438 -9.33594,0 0,-27.30469 -10.11718,27.30469 -9.375,0 -9.64844,-27.30469 0,27.30469 -9.375,0 0,-41.48438 z m 52.92969,0 11.67968,0 9.92188,29.45313 9.6875,-29.45313 11.36719,0 -14.64844,39.92188 -2.61719,7.22656 c -0.96355,2.42188 -1.88802,4.27084 -2.77344,5.54688 -0.85937,1.27604 -1.86198,2.30468 -3.00781,3.08593 -1.11979,0.80729 -2.51302,1.43229 -4.17969,1.875 -1.64062,0.44271 -3.5026,0.66407 -5.58593,0.66407 -2.10938,0 -4.17969,-0.22136 -6.21094,-0.66407 l -0.97656,-8.59375 c 1.71875,0.33854 3.26823,0.50782 4.64843,0.50782 2.55208,0 4.44011,-0.75521 5.66407,-2.26563 1.22396,-1.48437 2.16146,-3.38542 2.8125,-5.70312 l -15.78125,-41.60157 z m -441.75782,7.03125 0,10.19532 7.07032,0 c 3.41146,0 5.8724,-0.42969 7.38281,-1.28907 1.53646,-0.85938 2.30469,-2.21354 2.30469,-4.0625 0,-1.74479 -0.71615,-2.98177 -2.14844,-3.71093 -1.40625,-0.75521 -3.91927,-1.13282 -7.53906,-1.13282 l -7.07032,0 z m 264.53125,0 0,10.19532 7.07032,0 c 3.41146,0 5.8724,-0.42969 7.38281,-1.28907 1.53646,-0.85938 2.30469,-2.21354 2.30469,-4.0625 0,-1.74479 -0.71615,-2.98177 -2.14844,-3.71093 -1.40625,-0.75521 -3.91927,-1.13282 -7.53906,-1.13282 l -7.07032,0 z m -327.8125,0.0391 c -2.89062,0 -4.92187,0.41666 -6.09375,1.25 -1.17187,0.80729 -1.75781,2.16146 -1.75781,4.0625 0,1.90104 0.66407,3.26823 1.99219,4.10156 1.32813,0.83333 3.5026,1.25 6.52344,1.25 l 7.1875,0 0,-10.66406 -7.85157,0 z m -93.125,0.39062 c -2.39583,0 -4.375,0.8724 -5.9375,2.61719 -1.5625,1.74479 -2.33072,4.11458 -2.30468,7.10937 l 16.40625,0 c -0.0781,-3.17708 -0.89844,-5.58593 -2.46094,-7.22656 -1.5625,-1.66666 -3.46355,-2.5 -5.70313,-2.5 z m 253.4375,0 c -2.39583,0 -4.375,0.8724 -5.9375,2.61719 -1.5625,1.74479 -2.33072,4.11458 -2.30468,7.10937 l 16.40625,0 c -0.0781,-3.17708 -0.89844,-5.58593 -2.46094,-7.22656 -1.5625,-1.66666 -3.46355,-2.5 -5.70313,-2.5 z m 264.53125,0 c -2.39583,0 -4.375,0.8724 -5.9375,2.61719 -1.5625,1.74479 -2.33072,4.11458 -2.30468,7.10937 l 16.40625,0 c -0.0781,-3.17708 -0.89844,-5.58593 -2.46094,-7.22656 -1.5625,-1.66666 -3.46355,-2.5 -5.70313,-2.5 z m -136.17187,7.77344 21.5625,0 0,10.97656 -21.5625,0 0,-10.97656 z m -641.484376,6.32812 c -1.40625,0.46875 -3.632812,1.02865 -6.679688,1.67969 -3.046874,0.65105 -5.039062,1.28906 -5.976562,1.91406 -1.432292,1.01562 -2.148438,2.30469 -2.148438,3.86719 0,1.53646 0.572917,2.86458 1.71875,3.98438 1.145834,1.11979 2.604167,1.67968 4.375,1.67968 1.979167,0 3.867187,-0.65103 5.664063,-1.95312 1.328124,-0.98958 2.200521,-2.20052 2.617187,-3.63281 0.286459,-0.9375 0.429688,-2.72136 0.429688,-5.35157 l 0,-2.1875 z m 416.093746,2.34375 0,10.54688 8.67188,0 c 3.125,0 5.40364,-0.37761 6.83594,-1.13281 1.43229,-0.75521 2.14843,-2.10938 2.14843,-4.0625 0,-2.03126 -0.82031,-3.42448 -2.46093,-4.17969 -1.64063,-0.78125 -4.83074,-1.17188 -9.57032,-1.17188 l -5.625,0 z m 264.53125,0 0,10.54688 8.67188,0 c 3.125,0 5.40364,-0.37761 6.83594,-1.13281 1.43229,-0.75521 2.14843,-2.10938 2.14843,-4.0625 0,-2.03126 -0.82031,-3.42448 -2.46093,-4.17969 -1.64063,-0.78125 -4.83074,-1.17188 -9.57032,-1.17188 l -5.625,0 z m 228.55469,6.60157 10.97656,0 0,10.97656 -10.97656,0 0,-10.97656 z m -797.01172,28.98828 7.34375,0 0,21.99219 c 2.29167,-1.90104 4.66146,-3.38542 7.10938,-4.45313 2.44792,-1.06771 4.96093,-1.60156 7.53906,-1.60156 4.71354,0 8.30729,1.41927 10.78125,4.25781 2.47395,2.83855 3.71094,6.92709 3.71094,12.26563 l 0,28.32031 -7.34375,0 0,-24.84375 c 0,-2.00521 -0.11719,-3.88021 -0.35156,-5.625 -0.23438,-1.77084 -0.66407,-3.15105 -1.28907,-4.14063 -0.65104,-1.09375 -1.58854,-1.90104 -2.8125,-2.42187 -1.22396,-0.54688 -2.8125,-0.82031 -4.76562,-0.82031 -2.00521,0 -4.10156,0.49479 -6.28907,1.48437 -2.1875,0.98959 -4.28385,2.2526 -6.28906,3.78906 l 0,32.57813 -7.34375,0 0,-60.78125 z m 280.54688,0 7.34375,0 0,60.78125 -7.34375,0 0,-60.78125 z m 21.71875,0 7.34375,0 0,60.78125 -7.34375,0 0,-60.78125 z m 313.20312,0 7.34375,0 0,21.99219 c 2.29167,-1.90104 4.66146,-3.38542 7.10938,-4.45313 2.44792,-1.06771 4.96093,-1.60156 7.53906,-1.60156 4.71354,0 8.30729,1.41927 10.78125,4.25781 2.47395,2.83855 3.71094,6.92709 3.71094,12.26563 l 0,28.32031 -7.34375,0 0,-24.84375 c 0,-2.00521 -0.11719,-3.88021 -0.35157,-5.625 -0.23437,-1.77084 -0.66406,-3.15105 -1.28906,-4.14063 -0.65104,-1.09375 -1.58854,-1.90104 -2.8125,-2.42187 -1.22396,-0.54688 -2.8125,-0.82031 -4.76562,-0.82031 -2.00521,0 -4.10156,0.49479 -6.28906,1.48437 -2.1875,0.98959 -4.28386,2.2526 -6.28907,3.78906 l 0,32.57813 -7.34375,0 0,-60.78125 z m 50.23438,2.22656 8.28125,0 0,7.61719 -8.28125,0 0,-7.61719 z M 1.1875,747.8848 l 49.296875,0 0,6.875 -20.78125,0 0,51.28906 -7.734375,0 0,-51.28906 -20.78125,0 0,-6.875 z m 977.92969,0 8.75,0 -1.01563,42.14843 -6.64062,0 -1.09375,-42.14843 z m -208.35938,1.99218 7.34375,0 0,12.53907 15.15625,0 0,6.17187 -15.15625,0 0,19.88281 c 0,2.29167 0.0521,4.08855 0.15625,5.39063 0.10417,1.27604 0.46875,2.47395 1.09375,3.59375 0.57292,1.04166 1.35417,1.80989 2.34375,2.30469 1.01563,0.46874 2.55209,0.70312 4.60938,0.70312 1.19792,0 2.44792,-0.16927 3.75,-0.50781 1.30208,-0.36458 2.23958,-0.66406 2.8125,-0.89844 l 0.39062,0 0,6.60156 c -1.3802,0.36458 -2.89062,0.66407 -4.53125,0.89844 -1.61458,0.23438 -3.0599,0.35156 -4.33594,0.35156 -4.45312,0 -7.83854,-1.19791 -10.15624,-3.59375 -2.31772,-2.39583 -3.47657,-6.23697 -3.47657,-11.52343 l 0,-23.20313 -4.96093,0 0,-6.17187 4.96093,0 0,-12.53907 z m -703.437498,11.3281 c 5.885418,0 10.416668,1.71875 13.59375,5.15625 3.203126,3.4375 4.804688,8.32031 4.804688,14.64844 l 0,3.98437 -32.148438,0 c 0,2.68229 0.403647,5.02604 1.210938,7.03125 0.807292,1.97917 1.914063,3.60677 3.320312,4.88281 1.354167,1.25 2.95573,2.1875 4.804688,2.8125 1.875,0.625 3.932292,0.9375 6.171875,0.9375 2.96875,0 5.950519,-0.58593 8.945313,-1.75781 3.020832,-1.19791 5.169271,-2.36979 6.445312,-3.51562 l 0.390625,0 0,8.00781 c -2.473958,1.04166 -5,1.91406 -7.578125,2.61719 -2.578125,0.70312 -5.286458,1.05468 -8.125,1.05468 -7.239583,0 -12.890625,-1.95312 -16.953125,-5.85937 -4.0625,-3.9323 -6.09375,-9.50521 -6.09375,-16.71875 0,-7.13542 1.940103,-12.79948 5.820313,-16.99219 3.90625,-4.19271 9.036459,-6.28906 15.390624,-6.28906 z m 219.609378,0 c 2.96875,0 5.48177,0.625 7.53906,1.875 2.08333,1.25 3.63282,2.98177 4.64844,5.19531 2.96875,-2.5 5.67708,-4.29688 8.125,-5.39062 2.44792,-1.1198 5.0651,-1.67969 7.85156,-1.67969 4.79167,0 8.32032,1.45833 10.58594,4.375 2.29166,2.89062 3.4375,6.9401 3.4375,12.14844 l 0,28.32031 -7.34375,0 0,-24.84375 c 0,-1.875 -0.0911,-3.6849 -0.27344,-5.42969 -0.15625,-1.74479 -0.50781,-3.13802 -1.05469,-4.17969 -0.59896,-1.11979 -1.45833,-1.96614 -2.57812,-2.53906 -1.11979,-0.57291 -2.73437,-0.85937 -4.84375,-0.85937 -2.05729,0 -4.11458,0.52083 -6.17188,1.5625 -2.05729,1.01562 -4.11458,2.31771 -6.17187,3.90625 0.0781,0.59896 0.14322,1.30208 0.19531,2.10937 0.0521,0.78125 0.0781,1.5625 0.0781,2.34375 l 0,27.92969 -7.34374,0 0,-24.84375 c 0,-1.92708 -0.0911,-3.75 -0.27344,-5.46875 -0.15625,-1.7448 -0.50782,-3.13802 -1.05469,-4.17969 -0.59896,-1.11979 -1.45833,-1.95312 -2.57813,-2.5 -1.11979,-0.57291 -2.73437,-0.85937 -4.84374,-0.85937 -2.00521,0 -4.02344,0.49479 -6.05469,1.48437 -2.00521,0.98959 -4.01042,2.2526 -6.01563,3.78906 l 0,32.57813 -7.34375,0 0,-43.63281 7.34375,0 0,4.84375 c 2.29167,-1.90104 4.57031,-3.38542 6.83594,-4.45313 2.29167,-1.06771 4.72657,-1.60156 7.30469,-1.60156 z m 74.45312,0 c 5.88542,0 10.41667,1.71875 13.59375,5.15625 3.20313,3.4375 4.80469,8.32031 4.80469,14.64844 l 0,3.98437 -32.14844,0 c 0,2.68229 0.40365,5.02604 1.21094,7.03125 0.80729,1.97917 1.91406,3.60677 3.32031,4.88281 1.35417,1.25 2.95573,2.1875 4.80469,2.8125 1.875,0.625 3.9323,0.9375 6.17187,0.9375 2.96876,0 5.95053,-0.58593 8.94532,-1.75781 3.02083,-1.19791 5.16926,-2.36979 6.44531,-3.51562 l 0.39063,0 0,8.00781 c -2.47396,1.04166 -5.00001,1.91406 -7.57813,2.61719 -2.57813,0.70312 -5.28646,1.05468 -8.125,1.05468 -7.23959,0 -12.89062,-1.95312 -16.95313,-5.85937 -4.0625,-3.9323 -6.09374,-9.50521 -6.09374,-16.71875 0,-7.13542 1.9401,-12.79948 5.82031,-16.99219 3.90625,-4.19271 9.03646,-6.28906 15.39062,-6.28906 z m 203.75,0 c 5.88542,0 10.41667,1.71875 13.59375,5.15625 3.20313,3.4375 4.80469,8.32031 4.80469,14.64844 l 0,3.98437 -32.14844,0 c 0,2.68229 0.40365,5.02604 1.21094,7.03125 0.80729,1.97917 1.91406,3.60677 3.32031,4.88281 1.35417,1.25 2.95573,2.1875 4.80469,2.8125 1.875,0.625 3.93231,0.9375 6.17187,0.9375 2.96876,0 5.95053,-0.58593 8.94532,-1.75781 3.02083,-1.19791 5.16926,-2.36979 6.44531,-3.51562 l 0.39063,0 0,8.00781 c -2.47397,1.04166 -5.00001,1.91406 -7.57813,2.61719 -2.57813,0.70312 -5.28646,1.05468 -8.125,1.05468 -7.23959,0 -12.89062,-1.95312 -16.95313,-5.85937 -4.0625,-3.9323 -6.09374,-9.50521 -6.09374,-16.71875 0,-7.13542 1.9401,-12.79948 5.82031,-16.99219 3.90625,-4.19271 9.03646,-6.28906 15.39062,-6.28906 z m 94.375,0 c 5.88542,0 10.41667,1.71875 13.59375,5.15625 3.20313,3.4375 4.80469,8.32031 4.80469,14.64844 l 0,3.98437 -32.14844,0 c 0,2.68229 0.40365,5.02604 1.21094,7.03125 0.80729,1.97917 1.91406,3.60677 3.32031,4.88281 1.35417,1.25 2.95573,2.1875 4.80469,2.8125 1.875,0.625 3.93231,0.9375 6.17187,0.9375 2.96876,0 5.95053,-0.58593 8.94532,-1.75781 3.02083,-1.19791 5.16926,-2.36979 6.44531,-3.51562 l 0.39063,0 0,8.00781 c -2.47397,1.04166 -5.00001,1.91406 -7.57813,2.61719 -2.57813,0.70312 -5.28646,1.05468 -8.125,1.05468 -7.23959,0 -12.89062,-1.95312 -16.95313,-5.85937 -4.0625,-3.9323 -6.09374,-9.50521 -6.09374,-16.71875 0,-7.13542 1.9401,-12.79948 5.82031,-16.99219 3.90625,-4.19271 9.03646,-6.28906 15.39062,-6.28906 z m 236.99219,0 c 4.71354,0 8.30729,1.41927 10.78125,4.25781 2.47395,2.83855 3.71094,6.92709 3.71094,12.26563 l 0,28.32031 -7.34375,0 0,-24.84375 c 0,-2.00521 -0.11719,-3.88021 -0.35156,-5.625 -0.23438,-1.77084 -0.66407,-3.15105 -1.28907,-4.14063 -0.65104,-1.09375 -1.58854,-1.90104 -2.8125,-2.42187 -1.22396,-0.54688 -2.8125,-0.82031 -4.76562,-0.82031 -2.00521,0 -4.10156,0.49479 -6.28907,1.48437 -2.18749,0.98959 -4.28385,2.2526 -6.28906,3.78906 l 0,32.57813 -7.34375,0 0,-43.63281 7.34375,0 0,4.84375 c 2.29167,-1.90104 4.66146,-3.38542 7.10938,-4.45313 2.44792,-1.06771 4.96093,-1.60156 7.53906,-1.60156 z m 44.92188,0 c 2.52602,0 4.63541,0.26041 6.32812,0.78125 1.71875,0.49479 3.52865,1.26302 5.42969,2.30469 l 0.46875,-1.875 6.875,0 0,38.67187 c 0,7.39583 -1.67969,12.82552 -5.03906,16.28906 -3.35938,3.46354 -8.52865,5.19532 -15.50782,5.19532 -2.3177,0 -4.58333,-0.16928 -6.79687,-0.50782 -2.1875,-0.3125 -4.34896,-0.76822 -6.48438,-1.36718 l 0,-7.5 0.39063,0 c 1.19792,0.46874 3.09896,1.04166 5.70312,1.71875 2.60417,0.70312 5.20834,1.05468 7.8125,1.05468 2.5,0 4.57031,-0.29947 6.21094,-0.89843 1.64062,-0.59896 2.91667,-1.4323 3.82812,-2.5 0.91148,-1.01563 1.5625,-2.23959 1.95313,-3.67188 0.39062,-1.43229 0.58594,-3.03385 0.58594,-4.80469 l 0,-3.98437 c -2.21354,1.77083 -4.33594,3.09895 -6.36719,3.98437 -2.00521,0.85938 -4.57031,1.28907 -7.69531,1.28907 -5.20834,0 -9.34896,-1.875 -12.42188,-5.625 -3.04687,-3.77604 -4.57031,-9.08854 -4.57031,-15.9375 0,-3.75 0.52083,-6.97917 1.5625,-9.6875 1.06771,-2.73438 2.51302,-5.09115 4.33594,-7.07032 1.69271,-1.84896 3.75,-3.28125 6.17187,-4.29687 2.42188,-1.04167 4.83072,-1.5625 7.22657,-1.5625 z m -829.64844,0.15625 c 3.07292,0 5.74218,0.26041 8.00781,0.78125 2.29167,0.49479 4.27083,1.35416 5.9375,2.57812 1.64062,1.19792 2.89062,2.7474 3.75,4.64844 0.85937,1.90105 1.28906,4.25781 1.28906,7.07031 l 0,29.60938 -7.30469,0 0,-4.64844 c -0.65103,0.44271 -1.53646,1.06771 -2.65624,1.875 -1.09376,0.78125 -2.16146,1.40625 -3.20313,1.875 -1.22396,0.59896 -2.63021,1.09375 -4.21875,1.48438 -1.58855,0.41666 -3.45052,0.625 -5.58594,0.625 -3.93229,0 -7.26563,-1.30209 -9.999998,-3.90625 -2.734373,-2.60417 -4.101562,-5.92448 -4.101562,-9.96094 0,-3.3073 0.703128,-5.97657 2.109375,-8.00781 1.432293,-2.0573 3.46355,-3.67188 6.093745,-4.84375 2.65627,-1.17188 5.84636,-1.96615 9.57032,-2.38282 3.72396,-0.41666 7.72135,-0.72916 11.99218,-0.9375 l 0,-1.13281 c 0,-1.66667 -0.29947,-3.04688 -0.89843,-4.14062 -0.57292,-1.09376 -1.40625,-1.95313 -2.5,-2.57813 -1.04167,-0.59895 -2.29167,-1.0026 -3.75,-1.21094 -1.45834,-0.20833 -2.98178,-0.3125 -4.57031,-0.3125 -1.92709,0 -4.07552,0.26042 -6.44532,0.78125 -2.36979,0.49479 -4.81771,1.22396 -7.343748,2.1875 l -0.390624,0 0,-7.46093 c 1.432293,-0.39063 3.502602,-0.82032 6.210932,-1.28907 2.70835,-0.46875 5.37761,-0.70312 8.00782,-0.70312 z m 322.1875,0 c 3.07292,0 5.74218,0.26041 8.00781,0.78125 2.29167,0.49479 4.27083,1.35416 5.9375,2.57812 1.64062,1.19792 2.89062,2.7474 3.75,4.64844 0.85937,1.90105 1.28906,4.25781 1.28906,7.07031 l 0,29.60938 -7.30469,0 0,-4.64844 c -0.65104,0.44271 -1.53645,1.06771 -2.65624,1.875 -1.09376,0.78125 -2.16146,1.40625 -3.20313,1.875 -1.22396,0.59896 -2.63021,1.09375 -4.21875,1.48438 -1.58855,0.41666 -3.45052,0.625 -5.58594,0.625 -3.93229,0 -7.26562,-1.30209 -10,-3.90625 -2.73437,-2.60417 -4.10156,-5.92448 -4.10156,-9.96094 0,-3.3073 0.70312,-5.97657 2.10938,-8.00781 1.43229,-2.0573 3.46354,-3.67188 6.09374,-4.84375 2.65626,-1.17188 5.84636,-1.96615 9.57032,-2.38282 3.72396,-0.41666 7.72136,-0.72916 11.99218,-0.9375 l 0,-1.13281 c 0,-1.66667 -0.29947,-3.04688 -0.89843,-4.14062 -0.57292,-1.09376 -1.40625,-1.95313 -2.5,-2.57813 -1.04167,-0.59895 -2.29167,-1.0026 -3.75,-1.21094 -1.45834,-0.20833 -2.98177,-0.3125 -4.57031,-0.3125 -1.92709,0 -4.07552,0.26042 -6.44532,0.78125 -2.36979,0.49479 -4.81771,1.22396 -7.34375,2.1875 l -0.39062,0 0,-7.46093 c 1.43229,-0.39063 3.50261,-0.82032 6.21093,-1.28907 2.70834,-0.46875 5.37761,-0.70312 8.00782,-0.70312 z m -270.70313,0.0391 c 2.5,0 4.94792,0.35156 7.34375,1.05469 2.42188,0.70312 4.63542,1.5625 6.64063,2.57812 l 0,8.16407 -0.39063,0 c -2.23958,-1.7448 -4.55729,-3.08594 -6.95312,-4.02344 -2.36979,-0.9375 -4.6875,-1.40625 -6.95313,-1.40625 -4.16666,0 -7.46094,1.40625 -9.88281,4.21875 -2.39583,2.78646 -3.59375,6.88802 -3.59375,12.30469 0,5.26041 1.17187,9.30989 3.51563,12.14843 2.36979,2.8125 5.6901,4.21875 9.96093,4.21875 1.48438,0 2.99479,-0.19531 4.53125,-0.58593 1.53646,-0.39063 2.91667,-0.89844 4.14063,-1.52344 1.06771,-0.54688 2.07031,-1.11979 3.00781,-1.71875 0.9375,-0.625 1.67969,-1.15886 2.22656,-1.60156 l 0.39063,0 0,8.08593 c -2.44792,1.17188 -4.77865,2.08334 -6.99219,2.73438 -2.1875,0.65104 -4.51823,0.97656 -6.99219,0.97656 -3.15104,0 -6.04166,-0.45573 -8.67187,-1.36719 -2.63021,-0.9375 -4.88281,-2.34375 -6.75782,-4.21875 -1.90103,-1.875 -3.37239,-4.24479 -4.41406,-7.10937 -1.04166,-2.86458 -1.5625,-6.21094 -1.5625,-10.03906 0,-7.13542 1.95313,-12.73438 5.85938,-16.79688 3.93229,-4.0625 9.11458,-6.09375 15.54687,-6.09375 z m 426.5625,1.01563 7.96875,0 13.51563,34.72656 13.39843,-34.72656 7.69532,0 -17.65625,43.63281 -7.38281,0 -17.53907,-43.63281 z m 99.21875,0 7.34375,0 0,6.44531 c 2.91667,-2.34375 5.48179,-3.99739 7.69531,-4.96094 2.2396,-0.98958 4.51824,-1.48437 6.83594,-1.48437 1.27604,0 2.20052,0.0391 2.77344,0.11718 0.57291,0.0521 1.43229,0.16926 2.57812,0.35157 l 0,7.53906 -0.39062,0 c -1.09375,-0.26042 -2.16147,-0.44271 -3.20312,-0.54688 -1.01563,-0.13021 -2.22657,-0.19531 -3.63282,-0.19531 -2.26562,0 -4.45312,0.50781 -6.5625,1.52344 -2.10937,0.98958 -4.14062,2.27865 -6.09375,3.86719 l 0,30.97656 -7.34375,0 0,-43.63281 z m 29.375,0 7.96875,0 13.39844,32.34375 13.51563,-32.34375 7.69531,0 -25.46875,59.72656 -7.85156,0 8.125,-18.20313 -17.38282,-41.52343 z m 134.45313,0 7.34375,0 0,43.63281 -7.34375,0 0,-43.63281 z m -785.937502,4.84375 c -3.932292,0 -7.070313,1.15885 -9.414063,3.47656 -2.317708,2.3177 -3.632812,5.19531 -3.945313,8.63281 l 25,0 c -0.02604,-3.85417 -1.002602,-6.83594 -2.929687,-8.94531 -1.901041,-2.10938 -4.804688,-3.16406 -8.710937,-3.16406 z m 294.062502,0 c -3.93229,0 -7.07031,1.15885 -9.41407,3.47656 -2.3177,2.3177 -3.63281,5.19531 -3.94531,8.63281 l 25,0 c -0.0261,-3.85417 -1.00263,-6.83594 -2.92969,-8.94531 -1.90102,-2.10938 -4.80468,-3.16406 -8.71093,-3.16406 z m 203.75,0 c -3.93229,0 -7.07031,1.15885 -9.41407,3.47656 -2.3177,2.3177 -3.63281,5.19531 -3.94531,8.63281 l 25,0 c -0.0261,-3.85417 -1.00263,-6.83594 -2.92969,-8.94531 -1.90102,-2.10938 -4.80468,-3.16406 -8.71093,-3.16406 z m 94.375,0 c -3.93229,0 -7.07031,1.15885 -9.41407,3.47656 -2.3177,2.3177 -3.63281,5.19531 -3.94531,8.63281 l 25,0 c -0.0261,-3.85417 -1.00263,-6.83594 -2.92969,-8.94531 -1.90102,-2.10938 -4.80468,-3.16406 -8.71093,-3.16406 z m 283.59375,0.54687 c -4.03646,0 -7.21354,1.35417 -9.53125,4.0625 -2.31771,2.70833 -3.47657,6.64062 -3.47657,11.79688 0,4.89583 0.85938,8.60677 2.57813,11.13281 1.71875,2.52604 4.57031,3.78906 8.55469,3.78906 2.13542,0 4.27083,-0.40365 6.40625,-1.21094 2.16146,-0.83333 4.14062,-1.9401 5.9375,-3.32031 l 0,-23.78906 c -1.95312,-0.88542 -3.77604,-1.51042 -5.46875,-1.875 -1.66667,-0.39063 -3.33334,-0.58594 -5,-0.58594 z m -433.35938,9.25781 24.375,0 0,7.07032 -24.375,0 0,-7.07032 z m -385.89844,6.09375 c -2.23957,0.13021 -4.8828,0.32553 -7.92968,0.58594 -3.02084,0.26042 -5.41667,0.63802 -7.1875,1.13281 -2.10938,0.59896 -3.81511,1.53646 -5.11719,2.8125 -1.30209,1.25 -1.95313,2.98178 -1.95313,5.19532 0,2.5 0.75521,4.38802 2.26563,5.66406 1.51041,1.25 3.8151,1.875 6.91406,1.875 2.57813,0 4.93491,-0.4948 7.07031,-1.48438 2.13543,-1.01562 4.1146,-2.22656 5.9375,-3.63281 l 0,-12.14844 z m 322.1875,0 c -2.23957,0.13021 -4.8828,0.32553 -7.92968,0.58594 -3.02084,0.26042 -5.41667,0.63802 -7.1875,1.13281 -2.10938,0.59896 -3.81511,1.53646 -5.11719,2.8125 -1.30209,1.25 -1.95313,2.98178 -1.95313,5.19532 0,2.5 0.75521,4.38802 2.26563,5.66406 1.51041,1.25 3.8151,1.875 6.91406,1.875 2.57813,0 4.9349,-0.4948 7.07031,-1.48438 2.13543,-1.01562 4.11459,-2.22656 5.9375,-3.63281 l 0,-12.14844 z m 533.86719,14.64844 7.96875,0 0,8.24219 -7.96875,0 0,-8.24219 z"
       style="opacity:0.98999999;fill:#ffffff;fill-opacity:1;stroke:none;stroke-width:0;stroke-linecap:butt;stroke-linejoin:miter;stroke-miterlimit:4;stroke-dasharray:none;stroke-dashoffset:0;stroke-opacity:1;filter:url(#filter4147)" />
    <path
       style="opacity:0.98999999;fill:#000000;fill-opacity:1;stroke:none;stroke-width:0;stroke-linecap:butt;stroke-linejoin:miter;stroke-miterlimit:4;stroke-dasharray:none;stroke-dashoffset:0;stroke-opacity:1"
       d="m -57.005859,634.11719 a 36.92749,36.92749 0 0 0 -36.927735,36.92578 36.92749,36.92749 0 0 0 24.898438,34.87305 l 0,-15.1875 c 0,-2.03856 0.204853,-4.02745 0.595703,-5.94727 0.39085,-1.91982 0.968103,-3.771 1.710937,-5.5332 0.742834,-1.76221 1.651079,-3.43625 2.707032,-5.00196 0.650387,-0.96435 1.363574,-1.88194 2.121093,-2.75976 0.472371,-0.54739 0.957852,-1.0828 1.46875,-1.59375 1.330205,-1.33033 2.787925,-2.53183 4.353516,-3.58789 1.565591,-1.05607 3.237888,-1.96606 5,-2.70899 1.762112,-0.74292 3.613436,-1.32003 5.533203,-1.71093 1.919767,-0.39091 3.90871,-0.59571 5.947266,-0.59571 l 18.201172,0 a 36.92749,36.92749 0 0 0 -35.609375,-27.17187 z m 35.609375,27.17187 a 36.92749,36.92749 0 0 1 1.318359,9.75391 36.92749,36.92749 0 0 1 -36.927734,36.92773 36.92749,36.92749 0 0 1 -12.029297,-2.05468 l 0,40.36523 0,40.36523 a 36.92749,36.92749 0 0 1 12.029297,-2.05468 36.92749,36.92749 0 0 1 36.927734,36.92773 36.92749,36.92749 0 0 1 -1.318359,9.75391 l 441.619144,0 54.30468,0 40,0 71.36133,0 424.56253,0 a 36.92749,36.92749 0 0 1 -1.3184,-9.75391 36.92749,36.92749 0 0 1 36.9277,-36.92773 36.92749,36.92749 0 0 1 12.0293,2.05468 l 0,-40.36523 0,-40.36523 a 36.92749,36.92749 0 0 1 -12.0293,2.05468 36.92749,36.92749 0 0 1 -36.9277,-36.92773 36.92749,36.92749 0 0 1 1.3184,-9.75391 l -424.56253,0 -71.36133,0 -40,0 -54.30468,0 -441.619144,0 z m 1031.847684,0 18.2011,0 c 2.0386,0 4.0275,0.2048 5.9473,0.59571 1.9198,0.3909 3.7712,0.96801 5.5332,1.71093 1.7621,0.74293 3.4344,1.65292 5,2.70899 1.5656,1.05606 3.0233,2.25756 4.3535,3.58789 0.5109,0.51095 0.9964,1.04636 1.4688,1.59375 0.7575,0.87782 1.4708,1.79541 2.1211,2.75976 1.056,1.56571 1.9641,3.23975 2.707,5.00196 0.7428,1.7622 1.3201,3.61338 1.7109,5.5332 0.3909,1.91982 0.5957,3.90871 0.5957,5.94727 l 0,15.1875 a 36.92749,36.92749 0 0 0 24.8985,-34.87305 36.92749,36.92749 0 0 0 -36.9278,-36.92578 36.92749,36.92749 0 0 0 -0.121,0 36.92749,36.92749 0 0 0 -35.4883,27.17187 z m 47.6386,125.35742 0,15.1875 c 0,2.03856 -0.2048,4.02745 -0.5957,5.94727 -0.3908,1.91982 -0.9681,3.771 -1.7109,5.5332 -0.7429,1.76221 -1.651,3.43625 -2.707,5.00196 -0.6503,0.96435 -1.3636,1.88194 -2.1211,2.75976 -0.4724,0.54739 -0.9579,1.0828 -1.4688,1.59375 -1.3302,1.33033 -2.7879,2.53183 -4.3535,3.58789 -1.5656,1.05607 -3.2379,1.96606 -5,2.70899 -1.762,0.74292 -3.6134,1.32003 -5.5332,1.71093 -1.9198,0.39091 -3.9087,0.59571 -5.9473,0.59571 l -18.2011,0 a 36.92749,36.92749 0 0 0 35.6093,27.17187 36.92749,36.92749 0 0 0 36.9278,-36.92578 36.92749,36.92749 0 0 0 -24.8985,-34.87305 z m -1079.486284,44.62696 -18.201172,0 c -2.038556,0 -4.027499,-0.2048 -5.947266,-0.59571 -1.919767,-0.3909 -3.771091,-0.96801 -5.533203,-1.71093 -1.762112,-0.74293 -3.434409,-1.65292 -5,-2.70899 -1.565591,-1.05606 -3.023311,-2.25756 -4.353516,-3.58789 -0.510898,-0.51095 -0.996379,-1.04636 -1.46875,-1.59375 -0.757519,-0.87782 -1.470706,-1.79541 -2.121093,-2.75976 -1.055953,-1.56571 -1.964198,-3.23975 -2.707032,-5.00196 -0.742834,-1.7622 -1.320087,-3.61338 -1.710937,-5.5332 -0.39085,-1.91982 -0.595703,-3.90871 -0.595703,-5.94727 l 0,-15.1875 a 36.92749,36.92749 0 0 0 -24.898438,34.87305 36.92749,36.92749 0 0 0 36.927735,36.92578 36.92749,36.92749 0 0 0 35.609375,-27.17187 z m 15.3378902,-161.28321 11.5625,0 0,22.53907 22.6562498,0 0,-22.53907 11.5625,0 0,57.26563 -11.5625,0 0,-25.03906 -22.6562498,0 0,25.03906 -11.5625,0 0,-57.26563 z m 989.2968738,0 11.875,0 0,13.4375 -2.8125,29.0625 -6.21094,0 -2.85156,-29.0625 0,-13.4375 z M 67.847656,684.83398 c 4.895834,0 8.541667,0.58594 10.9375,1.75782 2.395834,1.14583 4.075521,2.61719 5.039063,4.41406 0.989583,1.77083 1.484375,5.03906 1.484375,9.80469 l -0.117188,12.8125 c 0,3.64583 0.169271,6.34114 0.507813,8.08593 0.364583,1.71875 1.028646,3.56771 1.992187,5.54688 l -10.859375,0 c -0.286458,-0.72917 -0.638021,-1.80989 -1.054687,-3.24219 -0.182292,-0.65104 -0.312501,-1.08073 -0.390625,-1.28906 -1.875,1.82292 -3.880209,3.19011 -6.015625,4.10156 -2.135417,0.91146 -4.414062,1.36719 -6.835938,1.36719 -4.270833,0 -7.643229,-1.15886 -10.117187,-3.47656 -2.447917,-2.31771 -3.671875,-5.2474 -3.671875,-8.78907 0,-2.34375 0.559896,-4.42708 1.679687,-6.25 1.119792,-1.84896 2.682292,-3.25521 4.6875,-4.21875 2.03125,-0.98958 4.947917,-1.84895 8.75,-2.57812 5.130209,-0.96354 8.684896,-1.86198 10.664063,-2.69531 l 0,-1.09375 c 0,-2.10938 -0.520834,-3.60677 -1.5625,-4.49219 -1.041667,-0.91146 -3.007812,-1.36719 -5.898438,-1.36719 -1.953124,0 -3.476562,0.39062 -4.570312,1.17188 -1.09375,0.7552 -1.979167,2.09635 -2.65625,4.02343 l -9.960938,-1.79687 c 1.119792,-4.01041 3.046876,-6.97916 5.78125,-8.90625 2.734376,-1.92708 6.796876,-2.89063 12.1875,-2.89063 z m 265.703124,0 c 6.17187,0 11.04167,2.04428 14.60938,6.13282 3.5677,4.0625 5.27343,10.29947 5.11718,18.71093 l -27.5,0 c 0.0781,3.25521 0.96355,5.79428 2.65625,7.61719 1.69271,1.79688 3.80209,2.69531 6.32813,2.69531 1.71875,0 3.16406,-0.46875 4.33594,-1.40625 1.17187,-0.9375 2.05729,-2.44791 2.65625,-4.53125 l 10.9375,1.83594 c -1.40625,4.01042 -3.63281,7.07032 -6.67969,9.17969 -3.02083,2.08333 -6.8099,3.125 -11.36719,3.125 -7.21355,0 -12.55208,-2.35677 -16.01562,-7.07031 -2.73438,-3.77604 -4.10157,-8.54166 -4.10157,-14.29688 0,-6.875 1.79688,-12.2526 5.39063,-16.13281 3.59375,-3.90625 8.13802,-5.85938 13.63281,-5.85938 z m 210.78125,0 c 5.05208,0 9.0625,1.09375 12.03125,3.28125 2.99479,2.16146 5.14323,5.46875 6.44531,9.92188 l -10.82031,1.95312 c -0.36459,-2.16146 -1.19792,-3.78905 -2.5,-4.88281 -1.27605,-1.09374 -2.94271,-1.64062 -5,-1.64062 -2.73438,0 -4.92188,0.95052 -6.5625,2.85156 -1.61459,1.875 -2.42187,5.02604 -2.42187,9.45312 0,4.92188 0.82031,8.39845 2.46093,10.42969 1.66667,2.03126 3.89323,3.04688 6.67969,3.04688 2.08333,0 3.78907,-0.58594 5.11719,-1.75782 1.32813,-1.19792 2.26563,-3.24218 2.8125,-6.13281 l 10.78125,1.83594 c -1.11979,4.94792 -3.26823,8.6849 -6.44531,11.21094 -3.17708,2.52604 -7.43489,3.78906 -12.77344,3.78906 -6.06771,0 -10.91146,-1.91406 -14.53125,-5.74219 -3.59375,-3.82812 -5.39063,-9.1276 -5.39063,-15.89844 0,-6.84896 1.8099,-12.17447 5.42969,-15.97656 3.61979,-3.82812 8.51562,-5.74219 14.6875,-5.74219 z m 42.65625,0 c 6.17187,0 11.04167,2.04428 14.60938,6.13282 3.5677,4.0625 5.27343,10.29947 5.11718,18.71093 l -27.5,0 c 0.0781,3.25521 0.96355,5.79428 2.65625,7.61719 1.69271,1.79688 3.80209,2.69531 6.32813,2.69531 1.71875,0 3.16406,-0.46875 4.33594,-1.40625 1.17187,-0.9375 2.05729,-2.44791 2.65625,-4.53125 l 10.9375,1.83594 c -1.40625,4.01042 -3.63281,7.07032 -6.67969,9.17969 -3.02083,2.08333 -6.8099,3.125 -11.36719,3.125 -7.21355,0 -12.55208,-2.35677 -16.01562,-7.07031 -2.73438,-3.77604 -4.10157,-8.54166 -4.10157,-14.29688 0,-6.875 1.79688,-12.2526 5.39063,-16.13281 3.59375,-3.90625 8.13802,-5.85938 13.63281,-5.85938 z m 221.875,0 c 5.05208,0 9.0625,1.09375 12.03125,3.28125 2.99479,2.16146 5.14323,5.46875 6.44531,9.92188 l -10.82031,1.95312 c -0.36459,-2.16146 -1.19792,-3.78905 -2.5,-4.88281 -1.27605,-1.09374 -2.94271,-1.64062 -5,-1.64062 -2.73438,0 -4.92188,0.95052 -6.5625,2.85156 -1.61459,1.875 -2.42187,5.02604 -2.42187,9.45312 0,4.92188 0.82031,8.39845 2.46093,10.42969 1.66667,2.03126 3.89323,3.04688 6.67969,3.04688 2.08333,0 3.78907,-0.58594 5.11719,-1.75782 1.32813,-1.19792 2.26563,-3.24218 2.8125,-6.13281 l 10.78125,1.83594 c -1.11979,4.94792 -3.26823,8.6849 -6.44531,11.21094 -3.17708,2.52604 -7.43489,3.78906 -12.77344,3.78906 -6.06771,0 -10.91146,-1.91406 -14.53125,-5.74219 -3.59375,-3.82812 -5.39063,-9.1276 -5.39063,-15.89844 0,-6.84896 1.8099,-12.17447 5.42969,-15.97656 3.61979,-3.82812 8.51562,-5.74219 14.6875,-5.74219 z m 42.65625,0 c 6.17187,0 11.04167,2.04428 14.60938,6.13282 3.5677,4.0625 5.27343,10.29947 5.11718,18.71093 l -27.5,0 c 0.0781,3.25521 0.96355,5.79428 2.65625,7.61719 1.69271,1.79688 3.80209,2.69531 6.32813,2.69531 1.71875,0 3.16406,-0.46875 4.33594,-1.40625 1.17187,-0.9375 2.05729,-2.44791 2.65625,-4.53125 l 10.9375,1.83594 c -1.40625,4.01042 -3.63281,7.07032 -6.67969,9.17969 -3.02083,2.08333 -6.8099,3.125 -11.36719,3.125 -7.21355,0 -12.55208,-2.35677 -16.01562,-7.07031 -2.73438,-3.77604 -4.10157,-8.54166 -4.10157,-14.29688 0,-6.875 1.79688,-12.2526 5.39063,-16.13281 3.59375,-3.90625 8.13802,-5.85938 13.63281,-5.85938 z m -760.546874,0.9375 11.679684,0 9.92188,29.45313 9.6875,-29.45313 11.36719,0 -14.64844,39.92188 -2.61719,7.22656 c -0.96355,2.42188 -1.88802,4.27084 -2.77344,5.54688 -0.85937,1.27604 -1.86198,2.30468 -3.00781,3.08593 -1.11979,0.80729 -2.51302,1.43229 -4.17969,1.875 -1.64062,0.44271 -3.5026,0.66407 -5.58593,0.66407 -2.109379,0 -4.179688,-0.22136 -6.210941,-0.66407 l -0.976563,-8.59375 c 1.718754,0.33854 3.268231,0.50782 4.648438,0.50782 2.552076,0 4.440106,-0.75521 5.664066,-2.26563 1.22396,-1.48437 2.16146,-3.38542 2.8125,-5.70312 L 90.972656,685.77148 Z m 48.125004,0 11.09375,0 0,9.92188 c 0,2.26563 0.19531,3.95833 0.58593,5.07812 0.41667,1.09375 1.27605,2.04427 2.57813,2.85157 1.32813,0.78124 2.99479,1.17187 5,1.17187 1.95313,0 4.14063,-0.44271 6.5625,-1.32812 l 0,-17.69532 10.97656,0 0,41.48438 -10.97656,0 0,-16.5625 c -4.27083,1.14583 -7.52605,1.71875 -9.76563,1.71875 -3.35937,0 -6.3802,-0.71614 -9.0625,-2.14844 -2.68229,-1.45833 -4.51823,-3.30729 -5.50781,-5.54687 -0.98959,-2.26563 -1.48437,-5.27344 -1.48437,-9.02344 l 0,-9.92188 z m 47.42187,0 10.54688,0 0,26.05469 16.875,-26.05469 10.78125,0 0,41.48438 -10.54688,0 0,-26.52344 -17.10937,26.52344 -10.54688,0 0,-41.48438 z m 71.99219,0 13.59375,0 10.3125,28.90625 10.39062,-28.90625 13.55469,0 0,41.48438 -9.33594,0 0,-27.30469 -10.11718,27.30469 -9.375,0 -9.64844,-27.30469 0,27.30469 -9.375,0 0,-41.48438 z m 103.32031,0 10.97656,0 0,15.19532 15.70313,0 0,-15.19532 11.01562,0 0,41.48438 -11.01562,0 0,-17.42188 -15.70313,0 0,17.42188 -10.97656,0 0,-41.48438 z m 62.65625,0 21.60156,0 0,41.48438 -10.89843,0 0,-17.22656 -1.01563,0 c -2.36979,0 -4.11458,0.3125 -5.23437,0.9375 -1.09375,0.59896 -2.31771,1.88802 -3.67188,3.86718 l -0.66406,0.82032 -7.22656,11.60156 -12.77344,0 7.85156,-12.03125 c 2.23958,-3.4375 4.27083,-5.41667 6.09375,-5.9375 -3.07292,-0.18229 -5.57292,-1.34115 -7.5,-3.47656 -1.90105,-2.16146 -2.85156,-4.90886 -2.85156,-8.24219 0,-2.68229 0.625,-4.97396 1.875,-6.875 1.27605,-1.90104 2.95573,-3.1901 5.03906,-3.86719 2.10937,-0.70312 5.23437,-1.05469 9.375,-1.05469 z m 55.07813,0 24.02343,0 c 4.92188,0 8.60677,0.89844 11.05469,2.69532 2.44791,1.79687 3.67188,4.5052 3.67188,8.125 0,2.3177 -0.67709,4.33593 -2.03125,6.05468 -1.32813,1.71875 -3.00782,2.86458 -5.03907,3.4375 2.86458,0.70312 5,2.01823 6.40625,3.94532 1.40625,1.92708 2.10938,4.03646 2.10938,6.32812 0,3.22917 -1.1849,5.85937 -3.55469,7.89063 -2.36979,2.0052 -5.87239,3.00781 -10.50781,3.00781 l -26.13281,0 0,-41.48438 z m 135.35156,0 13.59375,0 10.3125,28.90625 10.39062,-28.90625 13.55469,0 0,41.48438 -9.33594,0 0,-27.30469 -10.11718,27.30469 -9.375,0 -9.64844,-27.30469 0,27.30469 -9.375,0 0,-41.48438 z m 52.92969,0 11.67968,0 9.92188,29.45313 9.6875,-29.45313 11.36719,0 -14.64844,39.92188 -2.61719,7.22656 c -0.96355,2.42188 -1.88802,4.27084 -2.77344,5.54688 -0.85937,1.27604 -1.86198,2.30468 -3.00781,3.08593 -1.11979,0.80729 -2.51302,1.43229 -4.17969,1.875 -1.64062,0.44271 -3.5026,0.66407 -5.58593,0.66407 -2.10938,0 -4.17969,-0.22136 -6.21094,-0.66407 l -0.97656,-8.59375 c 1.71875,0.33854 3.26823,0.50782 4.64843,0.50782 2.55208,0 4.44011,-0.75521 5.66407,-2.26563 1.22396,-1.48437 2.16146,-3.38542 2.8125,-5.70312 l -15.78125,-41.60157 z m 76.25,0 24.02343,0 c 4.92188,0 8.60677,0.89844 11.05469,2.69532 2.44791,1.79687 3.67188,4.5052 3.67188,8.125 0,2.3177 -0.67709,4.33593 -2.03125,6.05468 -1.32813,1.71875 -3.00782,2.86458 -5.03907,3.4375 2.86458,0.70312 5,2.01823 6.40625,3.94532 1.40625,1.92708 2.10938,4.03646 2.10938,6.32812 0,3.22917 -1.1849,5.85937 -3.55469,7.89063 -2.36979,2.0052 -5.87239,3.00781 -10.50781,3.00781 l -26.13281,0 0,-41.48438 z m 135.35156,0 13.59375,0 10.3125,28.90625 10.39062,-28.90625 13.55469,0 0,41.48438 -9.33594,0 0,-27.30469 -10.11718,27.30469 -9.375,0 -9.64844,-27.30469 0,27.30469 -9.375,0 0,-41.48438 z m 52.92969,0 11.67968,0 9.92188,29.45313 9.6875,-29.45313 11.36719,0 -14.64844,39.92188 -2.61719,7.22656 c -0.96355,2.42188 -1.88802,4.27084 -2.77344,5.54688 -0.85937,1.27604 -1.86198,2.30468 -3.00781,3.08593 -1.11979,0.80729 -2.51302,1.43229 -4.17969,1.875 -1.64062,0.44271 -3.5026,0.66407 -5.58593,0.66407 -2.10938,0 -4.17969,-0.22136 -6.21094,-0.66407 l -0.97656,-8.59375 c 1.71875,0.33854 3.26823,0.50782 4.64843,0.50782 2.55208,0 4.44011,-0.75521 5.66407,-2.26563 1.22396,-1.48437 2.16146,-3.38542 2.8125,-5.70312 l -15.78125,-41.60157 z m -441.75782,7.03125 0,10.19532 7.07032,0 c 3.41146,0 5.8724,-0.42969 7.38281,-1.28907 1.53646,-0.85938 2.30469,-2.21354 2.30469,-4.0625 0,-1.74479 -0.71615,-2.98177 -2.14844,-3.71093 -1.40625,-0.75521 -3.91927,-1.13282 -7.53906,-1.13282 l -7.07032,0 z m 264.53125,0 0,10.19532 7.07032,0 c 3.41146,0 5.8724,-0.42969 7.38281,-1.28907 1.53646,-0.85938 2.30469,-2.21354 2.30469,-4.0625 0,-1.74479 -0.71615,-2.98177 -2.14844,-3.71093 -1.40625,-0.75521 -3.91927,-1.13282 -7.53906,-1.13282 l -7.07032,0 z m -327.8125,0.0391 c -2.89062,0 -4.92187,0.41666 -6.09375,1.25 -1.17187,0.80729 -1.75781,2.16146 -1.75781,4.0625 0,1.90104 0.66407,3.26823 1.99219,4.10156 1.32813,0.83333 3.5026,1.25 6.52344,1.25 l 7.1875,0 0,-10.66406 -7.85157,0 z m -93.125,0.39062 c -2.39583,0 -4.375,0.8724 -5.9375,2.61719 -1.5625,1.74479 -2.33072,4.11458 -2.30468,7.10937 l 16.40625,0 c -0.0781,-3.17708 -0.89844,-5.58593 -2.46094,-7.22656 -1.5625,-1.66666 -3.46355,-2.5 -5.70313,-2.5 z m 253.4375,0 c -2.39583,0 -4.375,0.8724 -5.9375,2.61719 -1.5625,1.74479 -2.33072,4.11458 -2.30468,7.10937 l 16.40625,0 c -0.0781,-3.17708 -0.89844,-5.58593 -2.46094,-7.22656 -1.5625,-1.66666 -3.46355,-2.5 -5.70313,-2.5 z m 264.53125,0 c -2.39583,0 -4.375,0.8724 -5.9375,2.61719 -1.5625,1.74479 -2.33072,4.11458 -2.30468,7.10937 l 16.40625,0 c -0.0781,-3.17708 -0.89844,-5.58593 -2.46094,-7.22656 -1.5625,-1.66666 -3.46355,-2.5 -5.70313,-2.5 z m -136.17187,7.77344 21.5625,0 0,10.97656 -21.5625,0 0,-10.97656 z m -641.484376,6.32812 c -1.40625,0.46875 -3.632812,1.02865 -6.679688,1.67969 -3.046874,0.65105 -5.039062,1.28906 -5.976562,1.91406 -1.432292,1.01562 -2.148438,2.30469 -2.148438,3.86719 0,1.53646 0.572917,2.86458 1.71875,3.98438 1.145834,1.11979 2.604167,1.67968 4.375,1.67968 1.979167,0 3.867187,-0.65103 5.664063,-1.95312 1.328124,-0.98958 2.200521,-2.20052 2.617187,-3.63281 0.286459,-0.9375 0.429688,-2.72136 0.429688,-5.35157 l 0,-2.1875 z m 416.093746,2.34375 0,10.54688 8.67188,0 c 3.125,0 5.40364,-0.37761 6.83594,-1.13281 1.43229,-0.75521 2.14843,-2.10938 2.14843,-4.0625 0,-2.03126 -0.82031,-3.42448 -2.46093,-4.17969 -1.64063,-0.78125 -4.83074,-1.17188 -9.57032,-1.17188 l -5.625,0 z m 264.53125,0 0,10.54688 8.67188,0 c 3.125,0 5.40364,-0.37761 6.83594,-1.13281 1.43229,-0.75521 2.14843,-2.10938 2.14843,-4.0625 0,-2.03126 -0.82031,-3.42448 -2.46093,-4.17969 -1.64063,-0.78125 -4.83074,-1.17188 -9.57032,-1.17188 l -5.625,0 z m 228.55469,6.60157 10.97656,0 0,10.97656 -10.97656,0 0,-10.97656 z m -797.01172,28.98828 7.34375,0 0,21.99219 c 2.29167,-1.90104 4.66146,-3.38542 7.10938,-4.45313 2.44792,-1.06771 4.96093,-1.60156 7.53906,-1.60156 4.71354,0 8.30729,1.41927 10.78125,4.25781 2.47395,2.83855 3.71094,6.92709 3.71094,12.26563 l 0,28.32031 -7.34375,0 0,-24.84375 c 0,-2.00521 -0.11719,-3.88021 -0.35156,-5.625 -0.23438,-1.77084 -0.66407,-3.15105 -1.28907,-4.14063 -0.65104,-1.09375 -1.58854,-1.90104 -2.8125,-2.42187 -1.22396,-0.54688 -2.8125,-0.82031 -4.76562,-0.82031 -2.00521,0 -4.10156,0.49479 -6.28907,1.48437 -2.1875,0.98959 -4.28385,2.2526 -6.28906,3.78906 l 0,32.57813 -7.34375,0 0,-60.78125 z m 280.54688,0 7.34375,0 0,60.78125 -7.34375,0 0,-60.78125 z m 21.71875,0 7.34375,0 0,60.78125 -7.34375,0 0,-60.78125 z m 313.20312,0 7.34375,0 0,21.99219 c 2.29167,-1.90104 4.66146,-3.38542 7.10938,-4.45313 2.44792,-1.06771 4.96093,-1.60156 7.53906,-1.60156 4.71354,0 8.30729,1.41927 10.78125,4.25781 2.47395,2.83855 3.71094,6.92709 3.71094,12.26563 l 0,28.32031 -7.34375,0 0,-24.84375 c 0,-2.00521 -0.11719,-3.88021 -0.35157,-5.625 -0.23437,-1.77084 -0.66406,-3.15105 -1.28906,-4.14063 -0.65104,-1.09375 -1.58854,-1.90104 -2.8125,-2.42187 -1.22396,-0.54688 -2.8125,-0.82031 -4.76562,-0.82031 -2.00521,0 -4.10156,0.49479 -6.28906,1.48437 -2.1875,0.98959 -4.28386,2.2526 -6.28907,3.78906 l 0,32.57813 -7.34375,0 0,-60.78125 z m 50.23438,2.22656 8.28125,0 0,7.61719 -8.28125,0 0,-7.61719 z M 1.1875,747.8848 l 49.296875,0 0,6.875 -20.78125,0 0,51.28906 -7.734375,0 0,-51.28906 -20.78125,0 0,-6.875 z m 977.92969,0 8.75,0 -1.01563,42.14843 -6.64062,0 -1.09375,-42.14843 z m -208.35938,1.99218 7.34375,0 0,12.53907 15.15625,0 0,6.17187 -15.15625,0 0,19.88281 c 0,2.29167 0.0521,4.08855 0.15625,5.39063 0.10417,1.27604 0.46875,2.47395 1.09375,3.59375 0.57292,1.04166 1.35417,1.80989 2.34375,2.30469 1.01563,0.46874 2.55209,0.70312 4.60938,0.70312 1.19792,0 2.44792,-0.16927 3.75,-0.50781 1.30208,-0.36458 2.23958,-0.66406 2.8125,-0.89844 l 0.39062,0 0,6.60156 c -1.3802,0.36458 -2.89062,0.66407 -4.53125,0.89844 -1.61458,0.23438 -3.0599,0.35156 -4.33594,0.35156 -4.45312,0 -7.83854,-1.19791 -10.15624,-3.59375 -2.31772,-2.39583 -3.47657,-6.23697 -3.47657,-11.52343 l 0,-23.20313 -4.96093,0 0,-6.17187 4.96093,0 0,-12.53907 z m -703.437498,11.3281 c 5.885418,0 10.416668,1.71875 13.59375,5.15625 3.203126,3.4375 4.804688,8.32031 4.804688,14.64844 l 0,3.98437 -32.148438,0 c 0,2.68229 0.403647,5.02604 1.210938,7.03125 0.807292,1.97917 1.914063,3.60677 3.320312,4.88281 1.354167,1.25 2.95573,2.1875 4.804688,2.8125 1.875,0.625 3.932292,0.9375 6.171875,0.9375 2.96875,0 5.950519,-0.58593 8.945313,-1.75781 3.020832,-1.19791 5.169271,-2.36979 6.445312,-3.51562 l 0.390625,0 0,8.00781 c -2.473958,1.04166 -5,1.91406 -7.578125,2.61719 -2.578125,0.70312 -5.286458,1.05468 -8.125,1.05468 -7.239583,0 -12.890625,-1.95312 -16.953125,-5.85937 -4.0625,-3.9323 -6.09375,-9.50521 -6.09375,-16.71875 0,-7.13542 1.940103,-12.79948 5.820313,-16.99219 3.90625,-4.19271 9.036459,-6.28906 15.390624,-6.28906 z m 219.609378,0 c 2.96875,0 5.48177,0.625 7.53906,1.875 2.08333,1.25 3.63282,2.98177 4.64844,5.19531 2.96875,-2.5 5.67708,-4.29688 8.125,-5.39062 2.44792,-1.1198 5.0651,-1.67969 7.85156,-1.67969 4.79167,0 8.32032,1.45833 10.58594,4.375 2.29166,2.89062 3.4375,6.9401 3.4375,12.14844 l 0,28.32031 -7.34375,0 0,-24.84375 c 0,-1.875 -0.0911,-3.6849 -0.27344,-5.42969 -0.15625,-1.74479 -0.50781,-3.13802 -1.05469,-4.17969 -0.59896,-1.11979 -1.45833,-1.96614 -2.57812,-2.53906 -1.11979,-0.57291 -2.73437,-0.85937 -4.84375,-0.85937 -2.05729,0 -4.11458,0.52083 -6.17188,1.5625 -2.05729,1.01562 -4.11458,2.31771 -6.17187,3.90625 0.0781,0.59896 0.14322,1.30208 0.19531,2.10937 0.0521,0.78125 0.0781,1.5625 0.0781,2.34375 l 0,27.92969 -7.34374,0 0,-24.84375 c 0,-1.92708 -0.0911,-3.75 -0.27344,-5.46875 -0.15625,-1.7448 -0.50782,-3.13802 -1.05469,-4.17969 -0.59896,-1.11979 -1.45833,-1.95312 -2.57813,-2.5 -1.11979,-0.57291 -2.73437,-0.85937 -4.84374,-0.85937 -2.00521,0 -4.02344,0.49479 -6.05469,1.48437 -2.00521,0.98959 -4.01042,2.2526 -6.01563,3.78906 l 0,32.57813 -7.34375,0 0,-43.63281 7.34375,0 0,4.84375 c 2.29167,-1.90104 4.57031,-3.38542 6.83594,-4.45313 2.29167,-1.06771 4.72657,-1.60156 7.30469,-1.60156 z m 74.45312,0 c 5.88542,0 10.41667,1.71875 13.59375,5.15625 3.20313,3.4375 4.80469,8.32031 4.80469,14.64844 l 0,3.98437 -32.14844,0 c 0,2.68229 0.40365,5.02604 1.21094,7.03125 0.80729,1.97917 1.91406,3.60677 3.32031,4.88281 1.35417,1.25 2.95573,2.1875 4.80469,2.8125 1.875,0.625 3.9323,0.9375 6.17187,0.9375 2.96876,0 5.95053,-0.58593 8.94532,-1.75781 3.02083,-1.19791 5.16926,-2.36979 6.44531,-3.51562 l 0.39063,0 0,8.00781 c -2.47396,1.04166 -5.00001,1.91406 -7.57813,2.61719 -2.57813,0.70312 -5.28646,1.05468 -8.125,1.05468 -7.23959,0 -12.89062,-1.95312 -16.95313,-5.85937 -4.0625,-3.9323 -6.09374,-9.50521 -6.09374,-16.71875 0,-7.13542 1.9401,-12.79948 5.82031,-16.99219 3.90625,-4.19271 9.03646,-6.28906 15.39062,-6.28906 z m 203.75,0 c 5.88542,0 10.41667,1.71875 13.59375,5.15625 3.20313,3.4375 4.80469,8.32031 4.80469,14.64844 l 0,3.98437 -32.14844,0 c 0,2.68229 0.40365,5.02604 1.21094,7.03125 0.80729,1.97917 1.91406,3.60677 3.32031,4.88281 1.35417,1.25 2.95573,2.1875 4.80469,2.8125 1.875,0.625 3.93231,0.9375 6.17187,0.9375 2.96876,0 5.95053,-0.58593 8.94532,-1.75781 3.02083,-1.19791 5.16926,-2.36979 6.44531,-3.51562 l 0.39063,0 0,8.00781 c -2.47397,1.04166 -5.00001,1.91406 -7.57813,2.61719 -2.57813,0.70312 -5.28646,1.05468 -8.125,1.05468 -7.23959,0 -12.89062,-1.95312 -16.95313,-5.85937 -4.0625,-3.9323 -6.09374,-9.50521 -6.09374,-16.71875 0,-7.13542 1.9401,-12.79948 5.82031,-16.99219 3.90625,-4.19271 9.03646,-6.28906 15.39062,-6.28906 z m 94.375,0 c 5.88542,0 10.41667,1.71875 13.59375,5.15625 3.20313,3.4375 4.80469,8.32031 4.80469,14.64844 l 0,3.98437 -32.14844,0 c 0,2.68229 0.40365,5.02604 1.21094,7.03125 0.80729,1.97917 1.91406,3.60677 3.32031,4.88281 1.35417,1.25 2.95573,2.1875 4.80469,2.8125 1.875,0.625 3.93231,0.9375 6.17187,0.9375 2.96876,0 5.95053,-0.58593 8.94532,-1.75781 3.02083,-1.19791 5.16926,-2.36979 6.44531,-3.51562 l 0.39063,0 0,8.00781 c -2.47397,1.04166 -5.00001,1.91406 -7.57813,2.61719 -2.57813,0.70312 -5.28646,1.05468 -8.125,1.05468 -7.23959,0 -12.89062,-1.95312 -16.95313,-5.85937 -4.0625,-3.9323 -6.09374,-9.50521 -6.09374,-16.71875 0,-7.13542 1.9401,-12.79948 5.82031,-16.99219 3.90625,-4.19271 9.03646,-6.28906 15.39062,-6.28906 z m 236.99219,0 c 4.71354,0 8.30729,1.41927 10.78125,4.25781 2.47395,2.83855 3.71094,6.92709 3.71094,12.26563 l 0,28.32031 -7.34375,0 0,-24.84375 c 0,-2.00521 -0.11719,-3.88021 -0.35156,-5.625 -0.23438,-1.77084 -0.66407,-3.15105 -1.28907,-4.14063 -0.65104,-1.09375 -1.58854,-1.90104 -2.8125,-2.42187 -1.22396,-0.54688 -2.8125,-0.82031 -4.76562,-0.82031 -2.00521,0 -4.10156,0.49479 -6.28907,1.48437 -2.18749,0.98959 -4.28385,2.2526 -6.28906,3.78906 l 0,32.57813 -7.34375,0 0,-43.63281 7.34375,0 0,4.84375 c 2.29167,-1.90104 4.66146,-3.38542 7.10938,-4.45313 2.44792,-1.06771 4.96093,-1.60156 7.53906,-1.60156 z m 44.92188,0 c 2.52602,0 4.63541,0.26041 6.32812,0.78125 1.71875,0.49479 3.52865,1.26302 5.42969,2.30469 l 0.46875,-1.875 6.875,0 0,38.67187 c 0,7.39583 -1.67969,12.82552 -5.03906,16.28906 -3.35938,3.46354 -8.52865,5.19532 -15.50782,5.19532 -2.3177,0 -4.58333,-0.16928 -6.79687,-0.50782 -2.1875,-0.3125 -4.34896,-0.76822 -6.48438,-1.36718 l 0,-7.5 0.39063,0 c 1.19792,0.46874 3.09896,1.04166 5.70312,1.71875 2.60417,0.70312 5.20834,1.05468 7.8125,1.05468 2.5,0 4.57031,-0.29947 6.21094,-0.89843 1.64062,-0.59896 2.91667,-1.4323 3.82812,-2.5 0.91148,-1.01563 1.5625,-2.23959 1.95313,-3.67188 0.39062,-1.43229 0.58594,-3.03385 0.58594,-4.80469 l 0,-3.98437 c -2.21354,1.77083 -4.33594,3.09895 -6.36719,3.98437 -2.00521,0.85938 -4.57031,1.28907 -7.69531,1.28907 -5.20834,0 -9.34896,-1.875 -12.42188,-5.625 -3.04687,-3.77604 -4.57031,-9.08854 -4.57031,-15.9375 0,-3.75 0.52083,-6.97917 1.5625,-9.6875 1.06771,-2.73438 2.51302,-5.09115 4.33594,-7.07032 1.69271,-1.84896 3.75,-3.28125 6.17187,-4.29687 2.42188,-1.04167 4.83072,-1.5625 7.22657,-1.5625 z m -829.64844,0.15625 c 3.07292,0 5.74218,0.26041 8.00781,0.78125 2.29167,0.49479 4.27083,1.35416 5.9375,2.57812 1.64062,1.19792 2.89062,2.7474 3.75,4.64844 0.85937,1.90105 1.28906,4.25781 1.28906,7.07031 l 0,29.60938 -7.30469,0 0,-4.64844 c -0.65103,0.44271 -1.53646,1.06771 -2.65624,1.875 -1.09376,0.78125 -2.16146,1.40625 -3.20313,1.875 -1.22396,0.59896 -2.63021,1.09375 -4.21875,1.48438 -1.58855,0.41666 -3.45052,0.625 -5.58594,0.625 -3.93229,0 -7.26563,-1.30209 -9.999998,-3.90625 -2.734373,-2.60417 -4.101562,-5.92448 -4.101562,-9.96094 0,-3.3073 0.703128,-5.97657 2.109375,-8.00781 1.432293,-2.0573 3.46355,-3.67188 6.093745,-4.84375 2.65627,-1.17188 5.84636,-1.96615 9.57032,-2.38282 3.72396,-0.41666 7.72135,-0.72916 11.99218,-0.9375 l 0,-1.13281 c 0,-1.66667 -0.29947,-3.04688 -0.89843,-4.14062 -0.57292,-1.09376 -1.40625,-1.95313 -2.5,-2.57813 -1.04167,-0.59895 -2.29167,-1.0026 -3.75,-1.21094 -1.45834,-0.20833 -2.98178,-0.3125 -4.57031,-0.3125 -1.92709,0 -4.07552,0.26042 -6.44532,0.78125 -2.36979,0.49479 -4.81771,1.22396 -7.343748,2.1875 l -0.390624,0 0,-7.46093 c 1.432293,-0.39063 3.502602,-0.82032 6.210932,-1.28907 2.70835,-0.46875 5.37761,-0.70312 8.00782,-0.70312 z m 322.1875,0 c 3.07292,0 5.74218,0.26041 8.00781,0.78125 2.29167,0.49479 4.27083,1.35416 5.9375,2.57812 1.64062,1.19792 2.89062,2.7474 3.75,4.64844 0.85937,1.90105 1.28906,4.25781 1.28906,7.07031 l 0,29.60938 -7.30469,0 0,-4.64844 c -0.65104,0.44271 -1.53645,1.06771 -2.65624,1.875 -1.09376,0.78125 -2.16146,1.40625 -3.20313,1.875 -1.22396,0.59896 -2.63021,1.09375 -4.21875,1.48438 -1.58855,0.41666 -3.45052,0.625 -5.58594,0.625 -3.93229,0 -7.26562,-1.30209 -10,-3.90625 -2.73437,-2.60417 -4.10156,-5.92448 -4.10156,-9.96094 0,-3.3073 0.70312,-5.97657 2.10938,-8.00781 1.43229,-2.0573 3.46354,-3.67188 6.09374,-4.84375 2.65626,-1.17188 5.84636,-1.96615 9.57032,-2.38282 3.72396,-0.41666 7.72136,-0.72916 11.99218,-0.9375 l 0,-1.13281 c 0,-1.66667 -0.29947,-3.04688 -0.89843,-4.14062 -0.57292,-1.09376 -1.40625,-1.95313 -2.5,-2.57813 -1.04167,-0.59895 -2.29167,-1.0026 -3.75,-1.21094 -1.45834,-0.20833 -2.98177,-0.3125 -4.57031,-0.3125 -1.92709,0 -4.07552,0.26042 -6.44532,0.78125 -2.36979,0.49479 -4.81771,1.22396 -7.34375,2.1875 l -0.39062,0 0,-7.46093 c 1.43229,-0.39063 3.50261,-0.82032 6.21093,-1.28907 2.70834,-0.46875 5.37761,-0.70312 8.00782,-0.70312 z m -270.70313,0.0391 c 2.5,0 4.94792,0.35156 7.34375,1.05469 2.42188,0.70312 4.63542,1.5625 6.64063,2.57812 l 0,8.16407 -0.39063,0 c -2.23958,-1.7448 -4.55729,-3.08594 -6.95312,-4.02344 -2.36979,-0.9375 -4.6875,-1.40625 -6.95313,-1.40625 -4.16666,0 -7.46094,1.40625 -9.88281,4.21875 -2.39583,2.78646 -3.59375,6.88802 -3.59375,12.30469 0,5.26041 1.17187,9.30989 3.51563,12.14843 2.36979,2.8125 5.6901,4.21875 9.96093,4.21875 1.48438,0 2.99479,-0.19531 4.53125,-0.58593 1.53646,-0.39063 2.91667,-0.89844 4.14063,-1.52344 1.06771,-0.54688 2.07031,-1.11979 3.00781,-1.71875 0.9375,-0.625 1.67969,-1.15886 2.22656,-1.60156 l 0.39063,0 0,8.08593 c -2.44792,1.17188 -4.77865,2.08334 -6.99219,2.73438 -2.1875,0.65104 -4.51823,0.97656 -6.99219,0.97656 -3.15104,0 -6.04166,-0.45573 -8.67187,-1.36719 -2.63021,-0.9375 -4.88281,-2.34375 -6.75782,-4.21875 -1.90103,-1.875 -3.37239,-4.24479 -4.41406,-7.10937 -1.04166,-2.86458 -1.5625,-6.21094 -1.5625,-10.03906 0,-7.13542 1.95313,-12.73438 5.85938,-16.79688 3.93229,-4.0625 9.11458,-6.09375 15.54687,-6.09375 z m 426.5625,1.01563 7.96875,0 13.51563,34.72656 13.39843,-34.72656 7.69532,0 -17.65625,43.63281 -7.38281,0 -17.53907,-43.63281 z m 99.21875,0 7.34375,0 0,6.44531 c 2.91667,-2.34375 5.48179,-3.99739 7.69531,-4.96094 2.2396,-0.98958 4.51824,-1.48437 6.83594,-1.48437 1.27604,0 2.20052,0.0391 2.77344,0.11718 0.57291,0.0521 1.43229,0.16926 2.57812,0.35157 l 0,7.53906 -0.39062,0 c -1.09375,-0.26042 -2.16147,-0.44271 -3.20312,-0.54688 -1.01563,-0.13021 -2.22657,-0.19531 -3.63282,-0.19531 -2.26562,0 -4.45312,0.50781 -6.5625,1.52344 -2.10937,0.98958 -4.14062,2.27865 -6.09375,3.86719 l 0,30.97656 -7.34375,0 0,-43.63281 z m 29.375,0 7.96875,0 13.39844,32.34375 13.51563,-32.34375 7.69531,0 -25.46875,59.72656 -7.85156,0 8.125,-18.20313 -17.38282,-41.52343 z m 134.45313,0 7.34375,0 0,43.63281 -7.34375,0 0,-43.63281 z m -785.937502,4.84375 c -3.932292,0 -7.070313,1.15885 -9.414063,3.47656 -2.317708,2.3177 -3.632812,5.19531 -3.945313,8.63281 l 25,0 c -0.02604,-3.85417 -1.002602,-6.83594 -2.929687,-8.94531 -1.901041,-2.10938 -4.804688,-3.16406 -8.710937,-3.16406 z m 294.062502,0 c -3.93229,0 -7.07031,1.15885 -9.41407,3.47656 -2.3177,2.3177 -3.63281,5.19531 -3.94531,8.63281 l 25,0 c -0.0261,-3.85417 -1.00263,-6.83594 -2.92969,-8.94531 -1.90102,-2.10938 -4.80468,-3.16406 -8.71093,-3.16406 z m 203.75,0 c -3.93229,0 -7.07031,1.15885 -9.41407,3.47656 -2.3177,2.3177 -3.63281,5.19531 -3.94531,8.63281 l 25,0 c -0.0261,-3.85417 -1.00263,-6.83594 -2.92969,-8.94531 -1.90102,-2.10938 -4.80468,-3.16406 -8.71093,-3.16406 z m 94.375,0 c -3.93229,0 -7.07031,1.15885 -9.41407,3.47656 -2.3177,2.3177 -3.63281,5.19531 -3.94531,8.63281 l 25,0 c -0.0261,-3.85417 -1.00263,-6.83594 -2.92969,-8.94531 -1.90102,-2.10938 -4.80468,-3.16406 -8.71093,-3.16406 z m 283.59375,0.54687 c -4.03646,0 -7.21354,1.35417 -9.53125,4.0625 -2.31771,2.70833 -3.47657,6.64062 -3.47657,11.79688 0,4.89583 0.85938,8.60677 2.57813,11.13281 1.71875,2.52604 4.57031,3.78906 8.55469,3.78906 2.13542,0 4.27083,-0.40365 6.40625,-1.21094 2.16146,-0.83333 4.14062,-1.9401 5.9375,-3.32031 l 0,-23.78906 c -1.95312,-0.88542 -3.77604,-1.51042 -5.46875,-1.875 -1.66667,-0.39063 -3.33334,-0.58594 -5,-0.58594 z m -433.35938,9.25781 24.375,0 0,7.07032 -24.375,0 0,-7.07032 z m -385.89844,6.09375 c -2.23957,0.13021 -4.8828,0.32553 -7.92968,0.58594 -3.02084,0.26042 -5.41667,0.63802 -7.1875,1.13281 -2.10938,0.59896 -3.81511,1.53646 -5.11719,2.8125 -1.30209,1.25 -1.95313,2.98178 -1.95313,5.19532 0,2.5 0.75521,4.38802 2.26563,5.66406 1.51041,1.25 3.8151,1.875 6.91406,1.875 2.57813,0 4.93491,-0.4948 7.07031,-1.48438 2.13543,-1.01562 4.1146,-2.22656 5.9375,-3.63281 l 0,-12.14844 z m 322.1875,0 c -2.23957,0.13021 -4.8828,0.32553 -7.92968,0.58594 -3.02084,0.26042 -5.41667,0.63802 -7.1875,1.13281 -2.10938,0.59896 -3.81511,1.53646 -5.11719,2.8125 -1.30209,1.25 -1.95313,2.98178 -1.95313,5.19532 0,2.5 0.75521,4.38802 2.26563,5.66406 1.51041,1.25 3.8151,1.875 6.91406,1.875 2.57813,0 4.9349,-0.4948 7.07031,-1.48438 2.13543,-1.01562 4.11459,-2.22656 5.9375,-3.63281 l 0,-12.14844 z m 533.86719,14.64844 7.96875,0 0,8.24219 -7.96875,0 0,-8.24219 z"
       id="path4276"
       inkscape:connector-curvature="0" />
    <g
       transform="translate(-29.982462,-366.77169)"
       id="layer1-7"
       inkscape:label="Layer 1"
       mask="none"
       clip-path="none">
      <path
         inkscape:connector-curvature="0"
         id="path4175"
         d="M 771.354,360.70222 621.8591,774.78414 495.1187,458.22089 l -83.0263,0 -7.82181,0 -217.75777,527.41345 91.11896,0 87.1573,-198.52493 170.08202,0 37.1791,96.6721 0.8464,0 91.6946,0 0.9144,0 -0.4742,-1.18507 197.4754,-521.89422 -91.1528,0 z m -322.6921,196.79809 58.6467,157.92606 -116.10821,0 57.46151,-157.92606 z"
         style="font-style:normal;font-variant:normal;font-weight:bold;font-stretch:normal;font-size:548.64501953px;line-height:125%;font-family:Arial;-inkscape-font-specification:'Arial Bold';text-align:center;letter-spacing:0px;word-spacing:0px;writing-mode:lr-tb;text-anchor:middle;fill:#ffffff;fill-opacity:1;stroke:none;filter:url(#filter4181)"
         clip-path="none" />
      <path
         clip-path="none"
         style="font-style:normal;font-variant:normal;font-weight:bold;font-stretch:normal;font-size:548.64501953px;line-height:125%;font-family:Arial;-inkscape-font-specification:'Arial Bold';text-align:center;letter-spacing:0px;word-spacing:0px;writing-mode:lr-tb;text-anchor:middle;fill:#000000;fill-opacity:1;stroke:none;filter:url(#filter21886)"
         d="M 771.354,360.70222 621.8591,774.78414 495.1187,458.22089 l -83.0263,0 -7.82181,0 -217.75777,527.41345 91.11896,0 87.1573,-198.52493 170.08202,0 37.1791,96.6721 0.8464,0 91.6946,0 0.9144,0 -0.4742,-1.18507 197.4754,-521.89422 -91.1528,0 z m -322.6921,196.79809 58.6467,157.92606 -116.10821,0 57.46151,-157.92606 z"
         id="path21882"
         inkscape:connector-curvature="0" />
      <path
         inkscape:connector-curvature="0"
         id="path2990-7"
         d="m 752.3223,384.79328 -137.9688,382.1563 -116.9687,-292.1563 -76.625,0 -7.2188,0 -200.96869,486.75 84.0937,0 80.4375,-183.2187 156.96879,0 34.3125,89.2187 0.7812,0 84.625,0 0.8438,0 -0.4375,-1.0937 182.25,-481.6563 -84.125,0 z m -297.8125,181.625 54.125,145.75 -107.15629,0 53.03129,-145.75 z"
         style="font-style:normal;font-variant:normal;font-weight:bold;font-stretch:normal;font-size:548.64501953px;line-height:125%;font-family:Arial;-inkscape-font-specification:'Arial Bold';text-align:center;letter-spacing:0px;word-spacing:0px;writing-mode:lr-tb;text-anchor:middle;fill:url(#linearGradient21880);fill-opacity:1;stroke:none;stroke-linejoin:round;stroke-opacity:1" />
    </g>
  </g>
</svg>
